<?xml version="1.0" standalone="no"?>
<!DOCTYPE svg PUBLIC "-//W3C//DTD SVG 1.1//EN" "http://www.w3.org/Graphics/SVG/1.1/DTD/svg11.dtd" >
<svg xmlns="http://www.w3.org/2000/svg" xmlns:xlink="http://www.w3.org/1999/xlink" version="1.1">
<metadata></metadata>
<defs>
<font id="ag_futurabold" horiz-adv-x="1405" >
<font-face units-per-em="2048" ascent="1638" descent="-410" />
<missing-glyph horiz-adv-x="1024" />
<glyph horiz-adv-x="0" />
<glyph unicode="&#xd;" horiz-adv-x="0" />
<glyph unicode=" "  horiz-adv-x="1024" />
<glyph unicode="&#x09;" horiz-adv-x="1024" />
<glyph unicode="&#xa0;" horiz-adv-x="1024" />
<glyph unicode="!" horiz-adv-x="786" d="M154 198q0 66 32 121t86.5 87t120.5 32t121 -32t87 -87t32 -121q0 -65 -32 -119.5t-87.5 -87t-120.5 -32.5q-64 0 -119.5 32.5t-87.5 87.5t-32 119zM200 524v1020h388v-1020h-388z" />
<glyph unicode="&#x22;" horiz-adv-x="1024" d="M96 1544h348l-55 -678h-237zM580 1544h348l-56 -678h-237z" />
<glyph unicode="#" d="M140 354v232h230l50 254h-197v231h240l79 416h218l-80 -416h207l79 416h216l-80 -416h164v-231h-201l-49 -254h192v-232h-242l-67 -354h-217l68 354h-208l-67 -354h-217l68 354h-186zM588 586h208l54 254h-213z" />
<glyph unicode="$" d="M140 178l167 310q78 -72 178.5 -122t192.5 -50q72 0 132 39.5t60 109.5q0 52 -41 83.5t-110 54.5t-170 57q-96 36 -164.5 81t-112.5 124.5t-44 195.5q0 121 52.5 229t148 176t216.5 76v248h191v-248q220 -20 372 -118l-151 -298q-125 100 -263 101q-74 0 -124 -28.5 t-50 -86.5q0 -60 54 -94t147 -66q146 -49 236.5 -96.5t149.5 -133t59 -218.5q0 -140 -51 -240t-147 -163.5t-232 -96.5v-256h-191v244q-131 0 -264 51q-165 63 -241 135z" />
<glyph unicode="%" horiz-adv-x="1997" d="M39 1190q0 118 56.5 203t152 128t213.5 43q116 0 212.5 -43t152.5 -128t56 -203q0 -121 -55 -207.5t-151 -130t-215 -43.5t-215 43.5t-151.5 130t-55.5 207.5zM286 1186q0 -72 51 -122t124 -50q47 0 87 23t63.5 62t23.5 87t-23.5 87.5t-63 63t-87.5 23.5t-87.5 -23.5 t-63.5 -63t-24 -87.5zM448 0l898 1544h200l-897 -1544h-201zM1114 360q0 118 56.5 203t152 128.5t213.5 43.5t213.5 -43.5t152.5 -127.5q56 -86 56 -204q0 -121 -55 -207t-151.5 -129.5t-215.5 -43.5t-215.5 43.5t-151.5 130t-55 206.5zM1362 356q0 -72 51 -122t123 -50 q47 0 87.5 23t63.5 62t23 87t-23 88t-63 63t-88 23t-88 -23t-63 -63t-23 -88z" />
<glyph unicode="&#x26;" horiz-adv-x="1736" d="M78 402q0 162 84 260q86 98 248 170l36 16l-32 45q-38 52 -58.5 83.5t-36.5 79.5t-16 105q0 128 66.5 224.5t176.5 148.5q110 51 236 51q124 0 236 -50.5t180 -146.5t68 -222q0 -134 -74.5 -218t-212.5 -154l195 -204q130 116 202 219l228 -217l-195 -209l-19 -19 l346 -364h-501l-133 144q-272 -184 -528 -185q-136 0 -249 52.5t-180 152.5q-67 102 -67 238zM494 461q0 -44 25 -76t66 -48.5t83 -16.5q106 0 214 63l-243 262q-66 -42 -105.5 -84.5t-39.5 -99.5zM684 1186q0 -50 28.5 -91t92.5 -114q60 34 101.5 82.5t41.5 106.5 q0 60 -37.5 101.5t-97.5 41.5q-54 0 -91.5 -35.5t-37.5 -91.5z" />
<glyph unicode="'" horiz-adv-x="512" d="M82 1544h348l-55 -678h-238z" />
<glyph unicode="(" horiz-adv-x="721" d="M100 586q0 269 77.5 552.5t220.5 479.5l222 -127q-81 -130 -133.5 -284.5t-77 -319t-24.5 -326.5q0 -152 25.5 -320t79.5 -329q52 -160 130 -276l-222 -128q-78 102 -134.5 231t-93 275t-53.5 290q-17 146 -17 282z" />
<glyph unicode=")" horiz-adv-x="721" d="M100 -364q78 117 131 275.5t79 328.5t26 321q0 162 -24.5 326.5t-77.5 319t-134 284.5l224 127q144 -198 220 -481t76 -551q0 -136 -16.5 -281t-52 -288.5t-92.5 -274t-135 -234.5z" />
<glyph unicode="*" horiz-adv-x="989" d="M140 1288l94 156l178 -113l-10 213h184l-10 -219l182 115l92 -156l-194 -102l192 -107l-92 -153l-180 116l8 -206h-184l12 204l-174 -110l-92 156l184 102z" />
<glyph unicode="+" d="M178 372v308h371v370h307v-370h371v-308h-371v-372h-307v372h-371z" />
<glyph unicode="," horiz-adv-x="702" d="M45 -289l267 680h350l-378 -680h-239z" />
<glyph unicode="-" horiz-adv-x="803" d="M108 504v307h586v-307h-586z" />
<glyph unicode="." horiz-adv-x="702" d="M112 198q0 101 70 170.5t170 69.5q66 0 121 -32t87 -87t32 -121q0 -65 -32 -119.5t-88 -86.5q-56 -33 -120 -33t-120 32.5t-88 87.5t-32 119z" />
<glyph unicode="/" horiz-adv-x="1186" d="M56 -190l782 1890h292l-782 -1890h-292z" />
<glyph unicode="0" d="M47 772q0 212 71.5 403t218.5 311t365 120q217 0 365.5 -120t219.5 -311t71 -403t-70.5 -403t-218.5 -311q-149 -120 -367 -120t-366 120t-218.5 311t-70.5 403zM446 774q0 -92 23.5 -204t81 -194.5t151.5 -82.5t152 82.5t81 194.5t23 204q0 162 -60 320t-196 158 q-94 0 -151.5 -82t-81 -193t-23.5 -203z" />
<glyph unicode="1" d="M330 1204v340h622v-1544h-401v1204h-221z" />
<glyph unicode="2" d="M68 0l630 686q176 192 176 379q0 78 -49 139.5t-127 61.5t-123 -54t-45 -135q0 -31 6 -65h-442q6 174 80.5 310t209 210t312.5 74q123 0 231.5 -39t190.5 -111t128 -174t46 -225q0 -157 -60 -266.5t-190 -227.5l-239 -223h505v-340h-1240z" />
<glyph unicode="3" d="M70 502h409q0 -94 60.5 -157t154.5 -63q60 0 110 26t78 73t28 109q0 57 -30 104.5t-79 74.5t-105 27q-24 0 -70 -12v268h42q78 0 127 46t49 124q0 70 -45 113t-113 43q-74 0 -119 -50.5t-45 -127.5h-372q24 232 180 372q149 134 393 134q140 0 252.5 -53t176.5 -155 t64 -241q0 -100 -40 -186q-42 -85 -122 -131q78 -21 135.5 -82.5t87 -143.5t29.5 -164q0 -123 -48 -218.5t-133 -161.5t-193 -99t-226 -33q-290 0 -460 174q-74 76 -125 184.5t-51 205.5z" />
<glyph unicode="4" d="M33 320v256l595 968h527v-918h187v-306h-187v-320h-373v320h-749zM418 626h364v594h-4z" />
<glyph unicode="5" horiz-adv-x="1411" d="M116 78l60 378q199 -178 430 -178q99 0 172.5 64.5t73.5 163.5q0 88 -49 148t-126.5 88t-162.5 28q-158 0 -295 -64l135 838h803v-340h-535l-26 -176l127 10q14 2 41 2q144 0 260 -74t181 -202t65 -278q0 -122 -52 -230q-51 -108 -147 -188q-163 -130 -451 -130t-504 140 z" />
<glyph unicode="6" d="M47 496q0 290 248 614l331 434h456l-439 -522l4 -4q108 47 215 47q147 0 260 -75.5t174.5 -200t61.5 -267.5q0 -137 -52.5 -246.5t-145 -184.5t-212.5 -114q-122 -39 -254 -39q-119 0 -238 34q-118 34 -202 100q-94 78 -150.5 192t-56.5 232zM438 510q0 -106 74.5 -181 t179.5 -75q69 0 126 34t89.5 93t32.5 129q0 69 -32.5 126.5t-90 91.5t-125.5 34t-126.5 -34t-93 -92t-34.5 -126z" />
<glyph unicode="7" d="M86 0l704 1204h-644v340h1267l-887 -1544h-440z" />
<glyph unicode="8" d="M112 406q0 100 38 180t107.5 137t162.5 88v4q-108 36 -176 132.5t-68 218.5q0 140 74 240t195 150t257 50t257 -50t195.5 -150t74.5 -240q0 -122 -68 -218.5t-176 -132.5v-4q142 -46 224.5 -151.5t82.5 -253.5q0 -150 -88 -256.5t-225 -159t-277 -52.5t-277 53t-225 159 t-88 256zM518 456q0 -78 54 -133t130 -55q77 0 131 55t54 133q0 80 -54 136.5t-131 56.5t-130 -56q-54 -57 -54 -137zM532 1153q0 -72 50 -123t120 -51t120 51t50 123t-50 123t-120 51q-46 0 -85 -23.5t-62 -63.5t-23 -87z" />
<glyph unicode="9" d="M47 1022q0 138 52.5 248t144.5 184.5t212 113t254 38.5q123 0 240 -32q117 -34 201 -102q95 -76 151 -190q56 -116 56 -236q0 -286 -248 -614l-330 -432h-456l440 520l-4 4q-108 -48 -218 -47q-109 0 -201.5 44t-158.5 121t-100.5 175t-34.5 205zM465 1034 q0 -107 71 -180q70 -74 176 -74q69 0 128.5 34t93.5 92.5t34 127.5q0 70 -34 128t-93.5 92t-128.5 34q-106 0 -176.5 -73t-70.5 -181z" />
<glyph unicode=":" horiz-adv-x="702" d="M112 198q0 101 70 170.5t170 69.5q66 0 121 -32t87 -87t32 -121q0 -65 -32 -119.5t-88 -86.5q-56 -33 -120 -33t-120 32.5t-88 87.5t-32 119zM112 889q0 100 70 169.5t170 69.5q66 0 121 -32t87 -86.5t32 -120.5q0 -99 -70 -169.5t-170 -70.5q-99 0 -169.5 70.5 t-70.5 169.5z" />
<glyph unicode=";" horiz-adv-x="702" d="M16 -289l266 680h351l-377 -680h-240zM207 889q0 66 32 120.5t86.5 86.5t120.5 32t121 -32t87 -86.5t32 -120.5q0 -99 -70 -169.5t-170 -70.5t-169.5 70.5t-69.5 169.5z" />
<glyph unicode="&#x3c;" d="M203 404v245l1001 373v-307l-561 -187v-4l561 -186v-308z" />
<glyph unicode="=" d="M178 127v307h1049v-307h-1049zM178 618v308h1049v-308h-1049z" />
<glyph unicode="&#x3e;" d="M203 30v308l561 186v4l-561 187v307l1001 -373v-245z" />
<glyph unicode="?" horiz-adv-x="1218" d="M30 1104q2 150 80 259t206 165.5t276 56.5q210 0 358 -127q79 -66 127.5 -161t48.5 -193q0 -110 -48 -199t-132 -150t-190 -93v-146h-375v398q50 -10 86 -11q99 0 181.5 54.5t82.5 148.5q0 64 -42.5 109t-106.5 45q-46 0 -78.5 -20.5t-49 -56t-16.5 -79.5h-408zM336 198 q0 66 32 121t87 87t121 32t120.5 -32t86.5 -87t32 -121q0 -65 -32 -119.5t-87.5 -87t-119.5 -32.5t-120 32.5t-88 87.5t-32 119z" />
<glyph unicode="@" horiz-adv-x="1515" d="M10 772q0 227 104 413.5t284 293t394 106.5q286 0 482 -178q229 -201 229 -479q0 -128 -32.5 -242t-94.5 -194q-70 -92 -152.5 -136t-162.5 -44q-42 2 -78 35t-49 83q-102 -118 -262 -118q-90 0 -169 51t-127 138.5t-48 190.5q0 127 52 241t148 183.5t218 69.5 q164 0 252 -127l20 109h194l-102 -533q-14 -59 -14 -88q0 -47 38 -47q38 4 84 57t79 133t39 166q0 173 -72.5 294.5t-197 181.5t-280.5 60q-126 0 -234 -45.5t-187 -130t-120.5 -197.5t-41.5 -247q0 -185 80.5 -326.5t221.5 -217.5t316 -76q117 0 215 24t152 58l168 -136 q-270 -140 -551 -139q-218 0 -400.5 105.5t-288.5 292t-106 415.5zM574 725q0 -52 18 -94.5t53 -68.5t84 -26q86 0 134 68q49 68 59 158q0 97 -39.5 147.5t-108.5 50.5q-84 0 -142 -73.5t-58 -161.5z" />
<glyph unicode="A" horiz-adv-x="1599" d="M-8 0l594 1544h438l582 -1544h-428l-101 268h-553l-106 -268h-426zM635 576h333l-163 491h-4z" />
<glyph unicode="B" horiz-adv-x="1386" d="M131 0v1544h573q460 0 460 -401q0 -229 -170 -315v-4q161 -21 237.5 -124t76.5 -270q0 -224 -159 -327t-399 -103h-619zM532 307h52q148 0 233.5 29.5t85.5 134.5q0 104 -70.5 136t-189.5 32h-69h-42v-332zM532 938h46q98 0 157 30t59 120q0 94 -62.5 121.5t-170.5 27.5 h-29v-299z" />
<glyph unicode="C" horiz-adv-x="1351" d="M53 770q0 159 58.5 305.5t168.5 260.5q76 78 172 134t203 85.5t213 29.5h5q176 0 362 -77v-482q-60 82 -154 126q-95 44 -199 44q-120 0 -214 -57t-145.5 -155t-51.5 -216q0 -121 52.5 -216.5t147.5 -149.5t218 -54q98 0 190 44t156 120v-482q-134 -40 -203.5 -55.5 t-151.5 -15.5q-160 0 -309 59q-149 58 -270 168q-248 224 -248 584z" />
<glyph unicode="D" horiz-adv-x="1540" d="M131 0v1544h569q160 0 303.5 -59t251.5 -164t169 -247t61 -302q0 -212 -106.5 -389.5t-286.5 -280.5q-182 -102 -392 -102h-569zM532 340h90q124 0 225 46.5t160.5 144t59.5 241.5q0 204 -121.5 318t-319.5 114h-94v-864z" />
<glyph unicode="E" horiz-adv-x="1126" d="M131 0v1544h879v-340h-478v-258h453v-340h-453v-266h478v-340h-879z" />
<glyph unicode="F" horiz-adv-x="1110" d="M131 0v1544h887v-340h-486v-258h441v-340h-441v-606h-401z" />
<glyph unicode="G" horiz-adv-x="1724" d="M53 764q0 185 60 339t172.5 264.5t266.5 169.5t339 59q158 0 292.5 -48.5t236.5 -145t167 -238.5l-381 -160q-42 114 -128 180q-88 66 -206 66q-125 0 -216.5 -70.5t-138 -183t-46.5 -234.5q0 -123 48 -234.5t141 -180.5q92 -69 218 -69q88 0 159 31t114 91t51 147h-328 v315h797q-2 -135 -13.5 -230.5t-45.5 -192.5t-98 -187q-218 -303 -638 -303q-238 0 -426.5 102.5t-292.5 288.5t-104 424z" />
<glyph unicode="H" horiz-adv-x="1644" d="M131 0v1544h401v-596h580v596h402v-1544h-402v633h-580v-633h-401z" />
<glyph unicode="I" horiz-adv-x="663" d="M131 0v1544h401v-1544h-401z" />
<glyph unicode="J" horiz-adv-x="1001" d="M-30 186l230 244q96 -131 162 -131q75 0 95 63.5t20 163.5v1018h401v-1042q0 -124 -31.5 -223t-96 -171t-160.5 -110q-98 -39 -224 -39h-2q-247 0 -394 227z" />
<glyph unicode="K" horiz-adv-x="1552" d="M131 0v1544h401v-636h4l486 636h498l-615 -731l670 -813h-521l-518 670h-4v-670h-401z" />
<glyph unicode="L" horiz-adv-x="1014" d="M131 0v1544h401v-1204h482v-340h-883z" />
<glyph unicode="M" horiz-adv-x="2013" d="M39 0l262 1544h395l314 -825l332 825h399l233 -1544h-401l-113 889h-4l-370 -889h-160l-354 889h-4l-130 -889h-399z" />
<glyph unicode="N" horiz-adv-x="1804" d="M131 0v1544h401l736 -944h4v944h401v-1544h-401l-736 946h-4v-946h-401z" />
<glyph unicode="O" horiz-adv-x="1816" d="M53 801q0 171 69.5 317t189.5 253.5t275 166t321 58.5t320 -58.5t274.5 -166t190 -253.5t69.5 -317q0 -184 -63 -341.5t-178.5 -272.5t-272 -176.5t-340.5 -61.5t-341 61.5t-273 177.5t-178.5 273t-62.5 340zM471 798q0 -130 58.5 -235.5t158.5 -164.5q102 -60 220 -60 q119 0 218.5 60t158.5 165t59 235q0 106 -59 200t-159.5 151t-217.5 57q-116 0 -217 -57t-160.5 -151t-59.5 -200z" />
<glyph unicode="P" horiz-adv-x="1353" d="M131 0v1544h615q170 0 296 -54t195 -168t69 -286q0 -136 -35.5 -235t-105 -163t-171.5 -95t-234 -31h-228v-512h-401zM532 836h68q96 0 154 9t96.5 50t38.5 129q0 92 -37.5 134t-94 52t-157.5 10h-68v-384z" />
<glyph unicode="Q" horiz-adv-x="1816" d="M53 801q0 171 69.5 317t189.5 253.5t275 166t321 58.5q180 0 335.5 -58.5t272.5 -168t181.5 -262.5t64.5 -339q0 -296 -200 -542l260 -265l-368 -57l-123 145q-165 -100 -423 -100q-184 0 -341 61.5t-273 177.5t-178.5 273t-62.5 340zM471 798q0 -97 34 -181.5t94.5 -147 t140.5 -97t170 -34.5q64 0 122 20l-248 246l380 48l108 -114q72 100 72 228q0 114 -58 216t-158 163t-218 61q-117 0 -218.5 -57t-161 -151t-59.5 -200z" />
<glyph unicode="R" horiz-adv-x="1392" d="M131 0v1544h600q156 0 277.5 -51t190.5 -158t69 -266q0 -108 -39.5 -200.5t-115 -154t-183.5 -81.5l485 -633h-499l-380 594h-4v-594h-401zM532 852h40q78 0 138 14.5t100 57t40 120.5t-40 121t-100 57.5t-138 14.5h-40v-385z" />
<glyph unicode="S" horiz-adv-x="1261" d="M62 135l172 324q182 -160 356 -160q78 0 136 39.5t58 115.5q0 74 -66 109t-178 68q-146 41 -232 84.5t-135.5 126.5t-49.5 225q0 154 68 271.5t189.5 182t275.5 64.5q118 0 249 -34.5t233 -92.5l-159 -311q-125 103 -267 103q-63 0 -117.5 -35t-54.5 -95t49 -90t130 -57 l102 -31q180 -52 280.5 -150t100.5 -272q0 -280 -160 -416q-171 -145 -434 -145h-4q-292 0 -542 176z" />
<glyph unicode="T" horiz-adv-x="1091" d="M12 1204v340h1065v-340h-331v-1204h-402v1204h-332z" />
<glyph unicode="U" horiz-adv-x="1593" d="M123 676v868h401v-813q0 -127 16.5 -214.5t76 -146t179.5 -58.5t180 58.5t76.5 146t16.5 214.5v813h401v-868q0 -122 -9 -212t-45 -177t-108 -156q-63 -62 -146.5 -99.5t-176.5 -55t-189 -17.5q-148 0 -284 41.5t-228 130.5q-72 70 -107 156t-44.5 176.5t-9.5 212.5z" />
<glyph unicode="V" horiz-adv-x="1558" d="M-30 1544h436l372 -938l375 938h436l-659 -1544h-312z" />
<glyph unicode="W" horiz-adv-x="2287" d="M-30 1544h417l269 -997h4l323 997h319l304 -997h4l290 997h418l-493 -1544h-410l-270 895h-5l-302 -895h-408z" />
<glyph unicode="X" horiz-adv-x="1616" d="M-16 0l604 826l-494 718h494l236 -399l235 399h493l-493 -718l571 -826h-483l-323 504l-355 -504h-485z" />
<glyph unicode="Y" horiz-adv-x="1462" d="M-39 1544h481l289 -420l289 420h481l-569 -802v-742h-402v742z" />
<glyph unicode="Z" horiz-adv-x="1448" d="M22 0l732 1204h-606v340h1278l-728 -1204h648v-340h-1324z" />
<glyph unicode="[" horiz-adv-x="717" d="M106 -492v2110h504v-217h-219v-1675h219v-218h-504z" />
<glyph unicode="\" horiz-adv-x="1186" d="M56 1700h294l780 -1700h-290z" />
<glyph unicode="]" horiz-adv-x="717" d="M106 -274h220v1675h-220v217h504v-2110h-504v218z" />
<glyph unicode="^" d="M211 834l369 772h246l368 -772l-234 -138l-258 551l-258 -551z" />
<glyph unicode="_" horiz-adv-x="1024" d="M0 -232h1024v-153h-1024v153z" />
<glyph unicode="`" horiz-adv-x="823" d="M154 1516l227 164l289 -353l-166 -121z" />
<glyph unicode="a" horiz-adv-x="1396" d="M47 526q0 112 38 213.5t109 180t168.5 122.5t211.5 44q96 0 182.5 -36t142.5 -102v102h373v-1050h-373v116h-4q-46 -74 -133.5 -112.5t-183.5 -38.5q-152 0 -273.5 76.5t-189.5 205.5t-68 279zM432 524q0 -102 64 -168q66 -67 176 -67q111 0 175.5 66.5t64.5 168.5 q0 66 -29 120t-83.5 86t-127.5 32q-72 0 -127 -32t-84 -86t-29 -120z" />
<glyph unicode="b" horiz-adv-x="1396" d="M110 0v1700h374v-752q58 66 144 102t181 36q114 0 211.5 -44t168 -122t109 -180t38.5 -214q0 -150 -68 -279t-189.5 -205.5t-273.5 -76.5q-97 0 -183 38.5t-134 112.5h-4v-116h-374zM471 524q0 -102 64.5 -168.5t174.5 -66.5q111 0 175.5 66.5t64.5 168.5q0 64 -28.5 119 t-84 87t-127.5 32t-127 -32t-83.5 -86t-28.5 -120z" />
<glyph unicode="c" horiz-adv-x="989" d="M47 514q0 125 45 230.5t125.5 181.5t187.5 118t230 42q135 0 245 -62v-316q-100 74 -192 74q-71 0 -129.5 -33.5t-92.5 -92t-34 -130.5q0 -114 74 -186q72 -72 188 -72q108 0 186 72v-316q-118 -59 -257 -59h-5q-154 0 -285 71t-208.5 196.5t-77.5 281.5z" />
<glyph unicode="d" horiz-adv-x="1396" d="M62 526q0 112 38 213.5t109 180t168 122.5t211 44q95 0 182.5 -35.5t143.5 -102.5v752h372v-1700h-372v116h-4q-46 -74 -133.5 -112.5t-184.5 -38.5q-152 0 -273 76.5t-189 205.5t-68 279zM446 524q0 -102 65 -168.5t175 -66.5t175 66.5t65 168.5q0 66 -29 120t-84 86 t-127 32t-127 -32t-84 -86t-29 -120z" />
<glyph unicode="e" horiz-adv-x="1249" d="M45 524q0 170 73.5 298t205.5 196t302 68q136 0 243 -40.5t181.5 -117t113 -184.5t38.5 -242v-39h-784q0 -233 234 -233q122 0 178 96h358q-29 -118 -108.5 -200t-191.5 -121.5t-234 -39.5q-176 0 -314 65t-216.5 191.5t-78.5 302.5zM424 678h432q-13 74 -73.5 120 t-137.5 46q-84 0 -144 -43t-77 -123z" />
<glyph unicode="f" horiz-adv-x="794" d="M28 744v306h132v134q0 132 18 210q19 78 88 158q70 82 165 125t202 43q87 0 159 -36v-322q-80 34 -130 34q-71 0 -100.5 -42t-29.5 -134v-170h260v-306h-260v-744h-372v744h-132z" />
<glyph unicode="g" horiz-adv-x="1386" d="M51 516q0 115 38.5 218t111.5 183t172.5 124.5t216.5 44.5q206 0 309 -146h4v110h373v-948q0 -326 -155 -476t-453 -150q-128 0 -261 44t-227 136q-94 91 -110 221h418q14 -52 69 -80q51 -25 107 -25q140 0 189.5 78t49.5 224v49q-74 -74 -153 -109q-78 -34 -180 -34 q-150 0 -269 70t-184.5 193.5t-65.5 272.5zM436 532q0 -103 65 -169t175 -66q73 0 127.5 31t83.5 84.5t29 119.5t-29 120t-84 86t-127 32t-127 -32t-84 -86q-29 -56 -29 -120z" />
<glyph unicode="h" horiz-adv-x="1353" d="M123 0v1700h373v-782h4q65 86 146.5 127t189.5 41q195 0 295 -118t100 -325v-643h-373v538q0 115 -33 182.5t-135 67.5t-148 -72t-46 -178v-538h-373z" />
<glyph unicode="i" horiz-adv-x="618" d="M100 1454q0 56 28 104.5t76.5 76.5t104.5 28t104.5 -28t76.5 -76.5t28 -104.5t-28 -104t-76.5 -76.5t-104.5 -28.5t-104.5 28.5t-76.5 76.5t-28 104zM123 0v1050h373v-1050h-373z" />
<glyph unicode="j" horiz-adv-x="618" d="M100 1454q0 56 28 104.5t76.5 76.5t104.5 28t104.5 -28t76.5 -76.5t28 -104.5t-28 -104t-76.5 -76.5t-104.5 -28.5t-104.5 28.5t-76.5 76.5t-28 104zM123 -524v1574h373v-1574h-373z" />
<glyph unicode="k" horiz-adv-x="1409" d="M123 0v1700h373v-1028l386 378h510l-526 -485l560 -565h-523l-407 428v-428h-373z" />
<glyph unicode="l" horiz-adv-x="618" d="M123 0v1700h373v-1700h-373z" />
<glyph unicode="m" horiz-adv-x="2025" d="M123 0v1050h373v-130h4q126 166 332 166q249 0 358 -202q52 96 149 149t207 53q358 0 358 -416v-670h-372v502q0 126 -27 206t-127 80q-114 0 -146 -78t-32 -208v-502h-372v502q0 132 -29 213t-137 81q-109 0 -137.5 -81t-28.5 -213v-502h-373z" />
<glyph unicode="n" horiz-adv-x="1353" d="M123 0v1050h373v-134h4q62 92 142 131t194 39q138 0 226 -54t128.5 -152t40.5 -231v-649h-373v512v49q0 101 -32 164t-136 63q-194 0 -194 -243v-545h-373z" />
<glyph unicode="o" horiz-adv-x="1356" d="M45 524q0 172 85.5 300t231.5 195t316 67t315.5 -67t231 -195t85.5 -300t-85.5 -299t-231 -193.5t-315.5 -66.5q-171 0 -316 66.5t-231 193.5t-86 299zM438 524q0 -102 65 -168.5t175 -66.5t175 66.5t65 168.5q0 66 -29 120t-84 86t-127 32t-127 -32t-84 -86t-29 -120z " />
<glyph unicode="p" horiz-adv-x="1396" d="M110 -524v1574h374v-118h4q48 75 133.5 114.5t183.5 39.5q114 0 212.5 -45t169.5 -123.5t110 -180.5t39 -215q0 -112 -38.5 -213.5t-109 -179t-168 -121t-211.5 -43.5q-94 0 -180.5 34.5t-144.5 100.5v-624h-374zM471 524q0 -102 64.5 -168.5t174.5 -66.5 q111 0 175.5 66.5t64.5 168.5q0 64 -28.5 119t-84 87t-127.5 32t-127 -32t-83.5 -86t-28.5 -120z" />
<glyph unicode="q" horiz-adv-x="1396" d="M62 522q0 110 38.5 213t110 182t169.5 124t212 45q98 0 185 -40t133 -114h4v118h372v-1574h-372v624q-56 -67 -144 -101t-182 -34q-114 0 -211 43.5t-168 121.5t-109 179t-38 213zM446 524q0 -102 65 -168.5t175 -66.5t175 66.5t65 168.5q0 66 -29 120t-84 86t-127 32 t-127 -32t-84 -86t-29 -120z" />
<glyph unicode="r" horiz-adv-x="927" d="M123 0v1050h373v-172h4q104 186 340 187h72v-359q-62 36 -158 36q-144 0 -201 -84t-57 -234v-424h-373z" />
<glyph unicode="s" horiz-adv-x="1050" d="M53 86l135 260q61 -42 145.5 -74t150.5 -32q42 0 79 20q37 22 37 60t-30 57t-80 31t-124 28q-107 28 -170 88t-63 188q0 124 65.5 208t171 125t226.5 41q196 0 346 -68l-125 -238q-97 52 -201 52q-41 0 -78.5 -18t-37.5 -54q0 -24 17.5 -41t44 -27t52.5 -14t54 -10 q305 -60 305 -310q0 -133 -70.5 -221.5t-183.5 -130t-242 -41.5q-227 0 -424 121z" />
<glyph unicode="t" horiz-adv-x="737" d="M37 744v306h121v316h372v-316h212v-306h-212v-744h-372v744h-121z" />
<glyph unicode="u" horiz-adv-x="1349" d="M116 418v632h374v-560q0 -112 39 -170t147 -58t147 58t39 170v560h373v-632q0 -453 -559 -453q-560 0 -560 453z" />
<glyph unicode="v" horiz-adv-x="1276" d="M-30 1050h417l252 -538l250 538h417l-548 -1050h-238z" />
<glyph unicode="w" horiz-adv-x="2040" d="M-30 1050h413l262 -568l265 568h220l264 -568l265 568h411l-548 -1050h-242l-260 576l-260 -576h-242z" />
<glyph unicode="x" horiz-adv-x="1458" d="M-30 0l524 570l-426 480h472l189 -216l189 216h481l-435 -480l525 -570h-489l-271 312l-270 -312h-489z" />
<glyph unicode="y" horiz-adv-x="1339" d="M-30 1050h430l280 -538l274 538h424l-842 -1574h-417l358 668z" />
<glyph unicode="z" horiz-adv-x="1145" d="M16 0l494 742h-428v308h1048l-491 -741h443v-309h-1066z" />
<glyph unicode="{" horiz-adv-x="721" d="M74 465v213q66 0 104.5 20t38.5 88v518q0 100 39.5 172t95.5 107q54 35 96 35h199v-246h-51q-62 0 -78 -31t-16 -89v-462q0 -186 -197 -216v-4q52 -8 91.5 -23t72.5 -67q33 -50 33 -150v-455q0 -60 16 -90.5t78 -30.5h51v-246h-199q-41 0 -96.5 35t-95 105t-39.5 170v518 q0 80 -37.5 104.5t-105.5 24.5z" />
<glyph unicode="|" horiz-adv-x="1186" d="M440 0v1700h308v-1700h-308z" />
<glyph unicode="}" horiz-adv-x="721" d="M74 -246h51q62 0 78 30.5t16 90.5v455q0 100 33 151t72.5 66t91.5 23v4q-196 30 -197 216v462q0 58 -16 89t-78 31h-51v246h198q42 0 97 -35t95 -107t40 -172v-518q0 -68 38.5 -88t104.5 -20v-213q-68 0 -105.5 -24.5t-37.5 -104.5v-518q0 -99 -40 -169.5t-95 -105.5 t-97 -35h-198v246z" />
<glyph unicode="~" d="M100 488q58 80 108.5 149t113 120.5t139.5 51.5q110 -1 262 -115q57 -44 118 -73t103 -29q37 0 71 55.5t56 116.5l233 -199q-50 -85 -98 -152t-115 -117t-145 -50q-35 0 -67.5 9t-64.5 23t-59 30t-61 36q-27 16 -81 51t-86.5 51.5t-61.5 16.5q-58 0 -133 -172z" />
<glyph unicode="&#xa3;" horiz-adv-x="1001" d="M-30 186l230 244q96 -131 162 -131q75 0 95 63.5t20 163.5v1018h401v-1042q0 -124 -31.5 -223t-96 -171t-160.5 -110q-98 -39 -224 -39q-248 -1 -396 227z" />
<glyph unicode="&#xa4;" d="M100 312l136 134q-102 136 -103 328q1 214 103 338l-136 138l128 128l136 -137q64 49 156 78t188 29q94 0 182 -29t146 -78l138 137l126 -126l-126 -130q50 -67 80 -158.5t30 -185.5t-31 -183t-83 -147l134 -134l-122 -134l-138 136q-62 -52 -152 -81.5t-184 -29.5 q-212 1 -346 113l-134 -136zM440 768q0 -114 76 -185t192 -71t192.5 71t76.5 185q0 74 -35 137t-97.5 99t-136.5 36t-135.5 -36t-97 -99t-35.5 -137z" />
<glyph unicode="&#xa6;" horiz-adv-x="1186" d="M440 0v676h308v-676h-308zM440 1024v676h308v-676h-308z" />
<glyph unicode="&#xa7;" d="M116 620q0 95 48 181q48 85 129 153q-44 42 -68.5 110t-24.5 130q0 124 66 213t173 133.5t229 44.5q130 0 237 -39.5t174.5 -124.5t73.5 -215h-321q-12 55 -51 89t-95 34q-48 0 -81 -28.5t-33 -76.5q0 -36 17 -63t46 -48t63 -37q34 -18 64 -32l227 -114 q102 -51 164 -94.5t99.5 -110.5t37.5 -168q0 -183 -172 -321q52 -45 78 -117.5t26 -148.5q0 -142 -75 -242t-198 -149.5t-261 -49.5q-144 0 -275 52.5t-211.5 161t-80.5 263.5h375q0 -78 61 -132t139 -54q66 0 111 37t45 100q0 62 -41 93t-131 75l-324 157 q-240 118 -240 338zM430 706q0 -30 13.5 -53t36 -40.5t49.5 -31.5t55 -28l342 -170q54 43 53 111q0 54 -41.5 88t-107.5 65l-336 170q-64 -37 -64 -111z" />
<glyph unicode="&#xa8;" horiz-adv-x="1126" d="M98 1932q0 84 59 142t144 58q54 0 100.5 -27t73.5 -73t27 -100q0 -56 -27 -102t-73 -73t-101 -27q-84 0 -143.5 59t-59.5 143zM131 0v1544h879v-340h-478v-258h453v-340h-453v-266h478v-340h-879zM622 1932q0 84 60 142t144 58q54 0 100 -27t73 -73t27 -100 q0 -55 -27 -101.5t-73 -73.5t-100 -27q-84 0 -144 59t-60 143z" />
<glyph unicode="&#xa9;" horiz-adv-x="1638" d="M8 770q0 222 108 409.5t295 296.5t408 109q167 0 315 -62.5t260 -175t174 -261t62 -316.5q0 -220 -108 -407t-295 -295.5t-408 -108.5q-222 0 -408.5 108.5t-294.5 295.5t-108 407zM200 770q0 -177 81 -318.5t222.5 -220.5t315.5 -79q172 0 313.5 79t223.5 221t82 318 q0 134 -47 249t-131 198.5t-197.5 129t-243.5 45.5q-174 0 -316 -79t-222.5 -221.5t-80.5 -321.5zM404 778q0 207 120 338t326 131q149 0 254 -82.5t129 -224.5h-185q-12 72 -66.5 111t-133.5 39q-78 0 -135 -42.5t-87 -113t-30 -152.5q0 -78 32 -150t91 -117.5t135 -45.5 q49 0 92.5 19.5t71.5 55.5q28 34 30 82h185q-16 -143 -124.5 -228.5t-254.5 -85.5q-98 0 -182 35t-144.5 100t-92 149.5t-31.5 181.5z" />
<glyph unicode="&#xab;" horiz-adv-x="1235" d="M53 656l353 503l204 -141l-258 -362l264 -357l-210 -147zM563 656l353 503l204 -141l-258 -362l264 -357l-210 -147z" />
<glyph unicode="&#xac;" d="M178 618v308h1049v-637h-307v329h-742z" />
<glyph unicode="&#xad;" horiz-adv-x="1235" d="M154 1321v219h926v-219h-926z" />
<glyph unicode="&#xae;" horiz-adv-x="1638" d="M8 770q0 222 108 409.5t295 296.5t408 109q167 0 315 -62.5t260 -175t174 -261t62 -316.5q0 -220 -108 -407t-295 -295.5t-408 -108.5q-222 0 -408.5 108.5t-294.5 295.5t-108 407zM200 770q0 -177 81 -318.5t222.5 -220.5t315.5 -79q172 0 313.5 79t223.5 221t82 318 q0 134 -47 249t-131 198.5t-197.5 129t-243.5 45.5q-174 0 -316 -79t-222.5 -221.5t-80.5 -321.5zM496 358v844h409q166 0 247 -51t81 -207q0 -114 -57 -167.5t-172 -61.5l204 -357h-204l-189 357h-131v-357h-188zM684 842h226q77 0 112 26t35 100q0 56 -51 71 q-52 15 -140 15h-182v-212z" />
<glyph unicode="&#xaf;" horiz-adv-x="663" d="M-133 1932q0 84 59.5 142t143.5 58q54 0 100 -27t73 -73t27 -100q0 -56 -27 -102t-73 -73t-100 -27q-84 0 -143.5 59t-59.5 143zM131 0v1544h401v-1544h-401zM391 1932q0 84 59.5 142t143.5 58q54 0 100 -27t73 -73t27 -100q0 -55 -27 -101.5t-72.5 -73.5t-100.5 -27 q-84 0 -144 58q-59 60 -59 144z" />
<glyph unicode="&#xb0;" horiz-adv-x="819" d="M102 1276q0 84 40.5 155t111 112.5t154.5 41.5q82 0 153 -41.5t113.5 -112.5t42.5 -155q0 -82 -42.5 -152.5t-113.5 -111.5t-153 -41q-84 0 -154.5 41.5t-111 111t-40.5 152.5zM276 1278q0 -55 39 -94t95 -39t94 38.5t38 94.5q0 54 -39 93.5t-95 39.5q-53 0 -92.5 -39.5 t-39.5 -93.5z" />
<glyph unicode="&#xb1;" d="M178 0v307h1049v-307h-1049zM178 742v306h371v292h307v-292h371v-306h-371v-292h-307v292h-371z" />
<glyph unicode="&#xb2;" horiz-adv-x="663" d="M131 0v1544h401v-1544h-401z" />
<glyph unicode="&#xb3;" horiz-adv-x="618" d="M100 1454q0 56 28 104.5t76.5 76.5t104.5 28t104.5 -28t76.5 -76.5t28 -104.5t-28 -104t-76.5 -76.5t-104.5 -28.5t-104.5 28.5t-76.5 76.5t-28 104zM123 0v1050h373v-1050h-373z" />
<glyph unicode="&#xb5;" horiz-adv-x="1349" d="M116 -524v1574h374v-560q0 -112 39 -170t147 -58t147 58t39 170v560h373v-632q0 -240 -147.5 -346.5t-329.5 -106.5q-164 1 -268 101v-590h-374z" />
<glyph unicode="&#xb6;" d="M94 1075q0 115 63 224t165 177t214 68h772v-186h-134v-1706h-208v1704h-190v-1704h-206v942q-200 20 -324 119q-126 99 -150 321q-2 14 -2 41z" />
<glyph unicode="&#xb7;" horiz-adv-x="702" d="M112 524q0 100 70 170t170 70q66 0 121 -32t87 -87t32 -121t-32 -120t-87 -87t-121 -33q-65 0 -120.5 33t-87.5 87t-32 120z" />
<glyph unicode="&#xb8;" horiz-adv-x="1249" d="M45 524q0 170 73.5 298t205.5 196t302 68q136 0 243 -40.5t181.5 -117t113 -184.5t38.5 -242v-39h-784q0 -233 234 -233q122 0 178 96h358q-29 -118 -108.5 -200t-191.5 -121.5t-234 -39.5q-176 0 -314 65t-216.5 191.5t-78.5 302.5zM160 1438q0 54 27 100t74 73t101 27 t100.5 -27t73.5 -73t27 -100t-27 -101t-72.5 -73.5t-101.5 -26.5q-84 0 -143 58q-59 59 -59 143zM424 678h432q-13 74 -73.5 120t-137.5 46q-84 0 -144 -43t-77 -123zM684 1438q0 54 27 100.5t74 73t102 26.5q54 0 100.5 -27t73.5 -73t27 -100t-27 -101t-73 -73.5 t-101 -26.5q-84 0 -143 58q-60 59 -60 143z" />
<glyph unicode="&#xb9;" horiz-adv-x="839" d="M10 645v153h822v-153h-822zM10 1250q0 104 55.5 180t150 115.5t204.5 39.5t205 -39.5t151 -115.5t56 -180t-56 -180.5t-151 -116t-205 -39.5t-204.5 39.5t-150 116t-55.5 180.5zM266 1250q0 -60 45 -101t109 -41t110 41t46 101q0 58 -46 99t-110 41t-109 -41t-45 -99z " />
<glyph unicode="&#xbb;" horiz-adv-x="1235" d="M108 299l264 357l-258 362l206 141l352 -503l-352 -504zM618 299l264 357l-258 362l206 141l352 -503l-352 -504z" />
<glyph unicode="&#xbc;" horiz-adv-x="618" d="M100 1454q0 56 28 104.5t76.5 76.5t104.5 28t104.5 -28t76.5 -76.5t28 -104.5t-28 -104t-76.5 -76.5t-104.5 -28.5t-104.5 28.5t-76.5 76.5t-28 104zM123 -524v1574h373v-1574h-373z" />
<glyph unicode="&#xbd;" horiz-adv-x="1261" d="M62 135l172 324q182 -160 356 -160q78 0 136 39.5t58 115.5q0 74 -66 109t-178 68q-146 41 -232 84.5t-135.5 126.5t-49.5 225q0 154 68 271.5t189.5 182t275.5 64.5q118 0 249 -34.5t233 -92.5l-159 -311q-125 103 -267 103q-63 0 -117.5 -35t-54.5 -95t49 -90t130 -57 l102 -31q180 -52 280.5 -150t100.5 -272q0 -280 -160 -416q-172 -146 -438 -145q-292 0 -542 176z" />
<glyph unicode="&#xbe;" horiz-adv-x="1050" d="M53 86l135 260q61 -42 145.5 -74t150.5 -32q42 0 79 20q37 22 37 60t-30 57t-80 31t-124 28q-107 28 -170 88t-63 188q0 124 65.5 208t171 125t226.5 41q196 0 346 -68l-125 -238q-97 52 -201 52q-41 0 -78.5 -18t-37.5 -54q0 -24 17.5 -41t44 -27t52.5 -14t54 -10 q306 -60 305 -312q0 -131 -70.5 -219.5t-183.5 -130t-242 -41.5q-227 0 -424 121z" />
<glyph unicode="&#xbf;" horiz-adv-x="618" d="M-156 1438q0 54 27 100t74.5 73t101.5 27t100.5 -27t73.5 -73t27 -100q0 -55 -27 -101.5t-73 -73t-101 -26.5q-84 0 -143 58q-60 59 -60 143zM123 0v1050h373v-1050h-373zM368 1438q0 54 27.5 100t74.5 73t102 27q54 0 100 -27t73 -73t27 -100t-27 -101t-73 -73.5 t-100 -26.5q-84 0 -144 58q-60 59 -60 143z" />
<glyph unicode="&#xc0;" horiz-adv-x="1599" d="M-8 0l594 1544h438l582 -1544h-428l-101 268h-553l-106 -268h-426zM635 576h333l-163 491h-4z" />
<glyph unicode="&#xc1;" horiz-adv-x="1353" d="M131 0v1544h1018v-340h-617v-213h228q176 0 298.5 -56.5t186 -169.5t63.5 -277q0 -157 -70 -267.5t-198 -165.5q-126 -55 -294 -55h-615zM532 324h68q106 0 165 9t97.5 47t38.5 120q0 78 -38 114.5t-97 45t-166 8.5h-68v-344z" />
<glyph unicode="&#xc2;" horiz-adv-x="1386" d="M131 0v1544h573q460 0 460 -401q0 -229 -170 -315v-4q161 -21 237.5 -124t76.5 -270q0 -224 -160 -327q-158 -103 -398 -103h-619zM532 307h52q148 0 233.5 29.5t85.5 134.5q0 104 -70.5 136t-189.5 32h-69h-42v-332zM532 938h46q98 0 157 30t59 120q0 94 -62.5 121.5 t-170.5 27.5h-29v-299z" />
<glyph unicode="&#xc3;" horiz-adv-x="1030" d="M131 0v1544h887v-340h-486v-1204h-401z" />
<glyph unicode="&#xc4;" horiz-adv-x="1478" d="M-37 -254v570q86 0 132.5 68t67.5 209t25 344t4 607h1156v-1228h118v-570h-380v252h-742v-252h-381zM446 316h480v888h-373q0 -238 -3 -378t-13.5 -240.5t-31.5 -165t-59 -104.5z" />
<glyph unicode="&#xc5;" horiz-adv-x="1126" d="M131 0v1544h879v-340h-478v-258h453v-340h-453v-266h478v-340h-879z" />
<glyph unicode="&#xc6;" horiz-adv-x="2285" d="M-18 0l588 813l-531 731h495l404 -636h4v636h402v-636h4l403 636h495l-530 -731l588 -813h-520l-436 670h-4v-670h-402v670h-4l-436 -670h-520z" />
<glyph unicode="&#xc7;" horiz-adv-x="1261" d="M41 135l172 324q183 -160 357 -160q194 0 194 174q0 79 -56.5 121.5t-146.5 42.5h-231v305h223q74 0 115.5 42t41.5 118q0 66 -47 107t-123 41q-74 0 -152.5 -28.5t-133.5 -74.5l-160 311q104 58 235 92.5t249 34.5q158 0 277 -49.5t186 -152.5t67 -255 q0 -103 -56.5 -180.5t-150.5 -115.5q81 -27 144.5 -82t100 -126t36.5 -145q0 -128 -42.5 -226.5t-121.5 -163.5t-188.5 -97.5t-245.5 -32.5q-292 0 -543 176z" />
<glyph unicode="&#xc8;" horiz-adv-x="1804" d="M129 0v1544h401v-944h4l736 944h401v-1544h-401v946h-4l-736 -946h-401z" />
<glyph unicode="&#xc9;" horiz-adv-x="1804" d="M129 0v1544h401v-944h4l736 944h401v-1544h-401v946h-4l-736 -946h-401zM510 1929h230q10 -64 56 -101q46 -36 112 -36q68 0 113 36t56 101h227q-6 -110 -58 -188t-140 -118t-198 -40t-199 40t-141 118.5t-58 187.5z" />
<glyph unicode="&#xca;" horiz-adv-x="1552" d="M131 0v1544h401v-636h4l486 636h498l-615 -731l670 -813h-521l-518 670h-4v-670h-401z" />
<glyph unicode="&#xcb;" horiz-adv-x="1478" d="M-22 299q85 0 125.5 34.5t59.5 150.5t24 341t5 719h1156v-1544h-402v1204h-372q0 -401 -12 -609.5t-62.5 -353t-164 -213.5t-317.5 -69z" />
<glyph unicode="&#xcc;" horiz-adv-x="2013" d="M39 0l262 1544h395l314 -825l332 825h399l233 -1544h-401l-113 889h-4l-370 -889h-160l-354 889h-4l-130 -889h-399z" />
<glyph unicode="&#xcd;" horiz-adv-x="1644" d="M131 0v1544h401v-596h580v596h402v-1544h-402v633h-580v-633h-401z" />
<glyph unicode="&#xce;" horiz-adv-x="1814" d="M53 801q0 171 69.5 317t189.5 253.5t275 166t321 58.5t320 -58.5t274.5 -166t190 -253.5t69.5 -317q0 -184 -63 -341.5t-178.5 -272.5t-272 -176.5t-340.5 -61.5t-341 61.5t-273 177.5t-178.5 273t-62.5 340zM471 798q0 -130 58.5 -235.5t158.5 -164.5q102 -60 220 -60 q119 0 218.5 60t158.5 165t59 235q0 106 -59 200t-160 151t-217 57t-217 -57t-160.5 -151t-59.5 -200z" />
<glyph unicode="&#xcf;" horiz-adv-x="1644" d="M131 0v1544h401h580h402v-1544h-402v1229h-580v-1229h-401z" />
<glyph unicode="&#xd0;" horiz-adv-x="1353" d="M131 0v1544h615q170 0 296 -54t195 -168t69 -286q0 -136 -35.5 -235t-105 -163t-171.5 -95t-234 -31h-228v-512h-401zM532 836h68q96 0 154 9t96.5 50t38.5 129q0 92 -37.5 134t-94 52t-157.5 10h-68v-384z" />
<glyph unicode="&#xd1;" horiz-adv-x="1351" d="M53 770q0 159 58.5 305.5t168.5 260.5q76 78 172 134t203 85.5t213 29.5q178 1 367 -77v-482q-60 82 -154 126q-95 44 -199 44q-120 0 -214 -57t-145.5 -155t-51.5 -216q0 -121 52.5 -216.5t147.5 -149.5t218 -54q98 0 190 44t156 120v-482q-134 -40 -203.5 -55.5 t-151.5 -15.5q-160 0 -309 59q-149 58 -270 168q-248 224 -248 584z" />
<glyph unicode="&#xd2;" horiz-adv-x="1091" d="M12 1204v340h1065v-340h-331v-1204h-402v1204h-332z" />
<glyph unicode="&#xd3;" horiz-adv-x="1562" d="M-22 1544h460l404 -741l317 741h418l-711 -1544h-412l187 389z" />
<glyph unicode="&#xd4;" horiz-adv-x="2048" d="M45 801q0 144 64.5 264t173.5 203t250 127.5t291 44.5v104h400v-104q149 0 290.5 -44.5t251 -127.5t173.5 -202.5t64 -264.5q0 -158 -60.5 -287.5t-168.5 -221.5t-250 -140t-300 -48v-104h-400v104q-158 0 -300 48t-249.5 139.5t-168.5 222t-61 287.5zM463 798 q0 -96 49.5 -173t132.5 -120.5t179 -43.5v623q-94 0 -178 -39t-133.5 -104t-49.5 -143zM1224 461q96 0 179 43.5t132.5 120.5t49.5 173q0 77 -49.5 142.5t-133.5 104.5t-178 39v-623z" />
<glyph unicode="&#xd5;" horiz-adv-x="1616" d="M-16 0l604 826l-494 718h494l236 -399l235 399h493l-493 -718l571 -826h-483l-323 504l-355 -504h-485z" />
<glyph unicode="&#xd6;" horiz-adv-x="1646" d="M131 0v1544h401v-1228h582v1228h402v-1228h118v-570h-380v254h-1123z" />
<glyph unicode="&#xd7;" horiz-adv-x="1542" d="M110 968v576h402v-514q0 -85 59 -129.5t154 -44.5q72 0 157.5 34.5t127.5 57.5v596h401v-1544h-401v633q-48 -29 -163 -73t-253 -44q-94 0 -182 32t-156 93t-107 145t-39 182z" />
<glyph unicode="&#xd8;" horiz-adv-x="2048" d="M131 0v1544h401v-1228h292v1228h400v-1228h292v1228h401v-1544h-1786z" />
<glyph unicode="&#xd9;" horiz-adv-x="2048" d="M131 0v1544h401v-1228h292v1228h400v-1228h292v1228h401v-1228h119v-570h-381v254h-1524z" />
<glyph unicode="&#xda;" horiz-adv-x="1478" d="M12 1204v340h644v-512h226q178 0 300 -55.5t185 -172t63 -296.5q0 -172 -70 -286t-196 -168t-296 -54h-614v1204h-242zM656 324h67q101 0 157.5 10t94 52t37.5 134q0 88 -39 129t-96 50t-154 9h-67v-384z" />
<glyph unicode="&#xdb;" horiz-adv-x="2007" d="M131 0v1544h401v-512h228q177 0 298.5 -55.5t184.5 -172t63 -296.5q0 -172 -69 -286t-195 -168t-296 -54h-615zM532 324h68q101 0 157.5 10t94 52t37.5 134q0 88 -38.5 129t-96.5 50t-154 9h-68v-384zM1474 0v1544h402v-1544h-402z" />
<glyph unicode="&#xdc;" horiz-adv-x="1353" d="M131 0v1544h401v-512h228q177 0 298.5 -55.5t184.5 -172t63 -296.5q0 -172 -69 -286t-195 -168t-296 -54h-615zM532 324h68q101 0 157.5 10t94 52t37.5 134q0 88 -38.5 129t-96.5 50t-154 9h-68v-384z" />
<glyph unicode="&#xdd;" horiz-adv-x="1351" d="M116 30v482q64 -76 157 -120t190 -44q148 0 254.5 77t144.5 208h-550v315h534q-46 114 -145.5 181t-231.5 67q-104 0 -198 -44q-95 -44 -155 -126v482q188 78 368 77q107 0 213.5 -29.5t202.5 -85.5q95 -56 171 -134q73 -76 124 -167t77 -193t26 -206q0 -360 -248 -584 q-78 -71 -172 -122.5t-197 -78t-210 -26.5q-82 0 -149 15q-68 14 -206 56z" />
<glyph unicode="&#xde;" horiz-adv-x="2427" d="M131 0v1544h401v-596h150q28 142 106 262t193 206t253 133q140 47 288 47q166 0 320.5 -58.5t274.5 -166t189.5 -253.5t69.5 -317q0 -184 -63 -341.5t-178.5 -272.5t-272 -176.5t-340.5 -61.5q-163 0 -305 48.5t-253.5 140.5t-183.5 217.5t-98 277.5h-150v-633h-401z M1086 798q0 -130 58 -235t158 -165t220 -60q118 0 218 59.5t159 165t59 235.5q0 106 -59 200t-160 151t-217 57q-117 0 -217.5 -57t-159.5 -151t-59 -200z" />
<glyph unicode="&#xdf;" horiz-adv-x="1392" d="M-22 0l485 633q-107 19 -183 81t-115.5 154.5t-39.5 200.5q0 159 69 266t189.5 158t278.5 51h600v-1544h-402v594h-4l-379 -594h-499zM542 1044q0 -78 40 -120.5t100 -57t139 -14.5h39v385h-39q-78 0 -138.5 -14.5t-100.5 -57.5t-40 -121z" />
<glyph unicode="&#xe0;" horiz-adv-x="1396" d="M47 526q0 112 38 213.5t109 180t168.5 122.5t211.5 44q96 0 182.5 -36t142.5 -102v102h373v-1050h-373v116h-4q-46 -74 -133.5 -112.5t-183.5 -38.5q-152 0 -273.5 76.5t-189.5 205.5t-68 279zM432 524q0 -102 64 -168q66 -67 176 -67q111 0 175.5 66.5t64.5 168.5 q0 66 -29 120t-84 86t-127 32t-127 -32t-84 -86t-29 -120z" />
<glyph unicode="&#xe1;" horiz-adv-x="1396" d="M86 551q0 207 18 365.5t79 304.5t190.5 247.5t341.5 133.5q200 30 266.5 76t70.5 71l234 -207q-39 -72 -74.5 -113t-140.5 -85t-299 -74q-128 -20 -212.5 -67t-123.5 -99q-40 -52 -43 -92q33 18 118.5 46t205.5 28q138 0 254.5 -40t202 -115t132 -180t46.5 -231 q0 -129 -50 -232.5t-138.5 -175.5t-202.5 -109.5t-242 -37.5t-242.5 36.5t-202.5 110.5t-138 185t-50 254zM479 524q0 -102 64.5 -168.5t175.5 -66.5q110 0 174.5 66.5t64.5 168.5q0 66 -28.5 120t-83 86t-127.5 32q-72 0 -127.5 -32t-84 -87t-28.5 -119z" />
<glyph unicode="&#xe2;" horiz-adv-x="1216" d="M116 0v1050h536q170 0 275 -70t105 -220q0 -112 -76 -182v-4q89 -30 136.5 -102t47.5 -165q0 -307 -454 -307h-570zM488 260h116q162 0 162 78q0 48 -41 64t-123 16h-114v-158zM488 654h102q94 0 94 67q0 69 -94 69h-102v-136z" />
<glyph unicode="&#xe3;" horiz-adv-x="880" d="M116 0v1050h736v-286h-364v-764h-372z" />
<glyph unicode="&#xe4;" horiz-adv-x="1216" d="M-10 -254v530l34 -6q56 0 86 60.5t42 190t12 351.5v144v34h936v-780h90v-524h-356v252h-488v-252h-356zM456 270h256v494h-208q-1 -159 -3.5 -241.5t-12.5 -145.5t-32 -107z" />
<glyph unicode="&#xe5;" horiz-adv-x="1249" d="M45 524q0 170 73.5 298t205.5 196t302 68q136 0 243 -40.5t181.5 -117t113 -184.5t38.5 -242v-39h-784q0 -233 234 -233q122 0 178 96h358q-29 -118 -108.5 -200t-191.5 -121.5t-234 -39.5q-176 0 -314 65t-216.5 191.5t-78.5 302.5zM424 678h432q-13 74 -73.5 120 t-137.5 46q-84 0 -144 -43t-77 -123z" />
<glyph unicode="&#xe6;" horiz-adv-x="1974" d="M-6 0l462 565l-428 485h490l285 -378v378h373v-378l284 378h490l-428 -485l462 -565h-512l-296 428v-428h-373v428l-297 -428h-512z" />
<glyph unicode="&#xe7;" horiz-adv-x="1054" d="M35 108l170 267l29 -21q130 -94 248 -94q110 0 110 82q0 32 -28 54t-74 22h-134v238h128q70 0 69 67q0 30 -25.5 49.5t-68.5 19.5q-105 0 -191 -57l-34 -23l-158 261l34 18q50 25 116 45t133 30.5t129 10.5q122 0 220 -35.5t155 -108.5t57 -181q0 -118 -105 -184 q72 -38 115 -98.5t45 -129.5q0 -179 -133.5 -272.5t-349.5 -93.5q-222 0 -426 116z" />
<glyph unicode="&#xe8;" horiz-adv-x="1452" d="M116 0v1050h374v-530h4l470 530h374v-1050h-374v559h-4l-470 -559h-374z" />
<glyph unicode="&#xe9;" horiz-adv-x="1452" d="M116 0v1050h374v-520h4l470 520h374v-1050h-374v549h-4l-470 -549h-374zM330 1483h229q11 -65 56 -101t112 -36q68 0 113.5 36t56.5 101h227q-6 -110 -58 -188.5t-141 -118.5t-198 -40q-110 0 -198.5 40t-140.5 119t-58 188z" />
<glyph unicode="&#xea;" horiz-adv-x="1409" d="M116 0v1050h374v-378l386 378h510l-526 -485l560 -565h-523l-407 428v-428h-374z" />
<glyph unicode="&#xeb;" horiz-adv-x="1216" d="M-4 262q72 0 101.5 15t44 79t18.5 197t4 463v34h936v-1050h-371v764h-211v-106q0 -193 -15 -315t-61 -204.5t-136 -123.5t-238 -41h-31z" />
<glyph unicode="&#xec;" horiz-adv-x="1618" d="M39 0l211 1050h350l213 -476l227 476h348l191 -1050h-375l-72 504h-4l-237 -504h-164l-225 504h-4l-84 -504h-375z" />
<glyph unicode="&#xed;" horiz-adv-x="1341" d="M116 0v1050h372v-368h366v368h370v-1050h-370v391h-366v-391h-372z" />
<glyph unicode="&#xee;" horiz-adv-x="1356" d="M45 524q0 172 85.5 300t231.5 195t316 67t315.5 -67t231 -195t85.5 -300t-85.5 -299t-231 -193.5t-315.5 -66.5q-171 0 -316 66.5t-231 193.5t-86 299zM438 524q0 -102 65 -168.5t175 -66.5t175 66.5t65 168.5q0 66 -29 120t-84 86t-127 32t-127 -32t-84 -86t-29 -120z " />
<glyph unicode="&#xef;" horiz-adv-x="1341" d="M116 0v1050h1108v-1050h-370v760h-366v-760h-372z" />
<glyph unicode="&#xf0;" horiz-adv-x="1396" d="M110 -524v1574h374v-118h4q48 75 133.5 114.5t183.5 39.5q114 0 212.5 -45t169.5 -123.5t110 -180.5t39 -215q0 -112 -38.5 -213.5t-109 -179t-168 -121t-211.5 -43.5q-94 0 -180.5 34.5t-144.5 100.5v-624h-374zM471 524q0 -102 64.5 -168.5t174.5 -66.5 q111 0 175.5 66.5t64.5 168.5q0 64 -28.5 119t-83.5 87q-56 32 -128 32t-127 -32t-83.5 -86t-28.5 -120z" />
<glyph unicode="&#xf1;" horiz-adv-x="989" d="M47 514q0 125 45 230.5t125.5 181.5t187.5 118t230 42q135 0 245 -62v-316q-100 74 -192 74q-71 0 -129.5 -33.5t-92.5 -92t-34 -130.5q0 -114 74 -186q72 -72 188 -72q108 0 186 72v-316q-120 -60 -262 -59q-154 0 -285 71t-208.5 196.5t-77.5 281.5z" />
<glyph unicode="&#xf2;" horiz-adv-x="925" d="M28 764v286h869v-286h-250v-764h-371v764h-248z" />
<glyph unicode="&#xf3;" horiz-adv-x="1339" d="M-30 1050h430l280 -538l274 538h424l-842 -1574h-417l358 668z" />
<glyph unicode="&#xf4;" horiz-adv-x="2167" d="M45 522q0 113 38.5 214.5t110 180.5t170 124t212.5 45q98 0 184 -40t133 -114h4v612h373v-612h4q48 75 134 114.5t184 39.5q114 0 212 -45t169 -123t110 -181t39 -215t-38.5 -213.5t-109 -179t-168.5 -121.5q-96 -43 -210 -43q-94 0 -181 34.5t-145 100.5v-624h-373v624 q-58 -67 -145 -101q-86 -34 -180 -34q-114 0 -211 43.5t-168.5 121.5t-109.5 179t-38 213zM430 524q0 -102 64 -168q66 -67 176 -67q111 0 175.5 66.5t64.5 168.5q0 64 -29 119t-84 87t-127 32t-127 -32t-84 -86t-29 -120zM1258 524q0 -102 64 -168.5t175 -66.5 q110 0 174.5 66.5t64.5 168.5q0 66 -28.5 120t-83 86t-127.5 32q-72 0 -127 -32t-83.5 -86t-28.5 -120z" />
<glyph unicode="&#xf5;" horiz-adv-x="1458" d="M-30 0l524 570l-426 480h472l189 -216l189 216h481l-435 -480l525 -570h-489l-271 312l-270 -312h-489z" />
<glyph unicode="&#xf6;" horiz-adv-x="1341" d="M116 0v1050h372v-759h366v759h370v-759h89v-545h-355v254h-842z" />
<glyph unicode="&#xf7;" horiz-adv-x="1259" d="M96 649v401h371v-386q0 -38 33 -64q34 -24 92 -26q106 0 180 78v398h371v-1050h-371v375q-122 -59 -288 -59q-102 0 -191 43t-143 120t-54 170z" />
<glyph unicode="&#xf8;" horiz-adv-x="1767" d="M116 0v1050h372v-759h210v759h371v-759h211v759h370v-1050h-1534z" />
<glyph unicode="&#xf9;" horiz-adv-x="1767" d="M116 0v1050h372v-759h210v759h371v-759h211v759h370v-759h89v-545h-355v254h-1268z" />
<glyph unicode="&#xfa;" horiz-adv-x="1216" d="M28 764v286h552v-325h137q210 0 327 -92.5t117 -274.5q0 -179 -126.5 -268.5t-330.5 -89.5h-495v764h-181zM580 274h16q102 0 142 17t40 73t-41 71t-141 15h-16v-176z" />
<glyph unicode="&#xfb;" horiz-adv-x="1644" d="M116 0v1050h372v-325h136q210 0 327.5 -92.5t117.5 -274.5q0 -179 -126.5 -268.5t-330.5 -89.5h-496zM488 274h16q108 2 145 16t37 74q0 58 -40 72t-142 14h-16v-176zM1157 0v1050h371v-1050h-371z" />
<glyph unicode="&#xfc;" horiz-adv-x="1122" d="M116 0v1050h372v-325h136q210 0 327.5 -92.5t117.5 -274.5q0 -179 -126.5 -268.5t-330.5 -89.5h-496zM488 274h16q72 0 108 5t55 25q19 18 19 60q0 58 -40 72t-142 14h-16v-176z" />
<glyph unicode="&#xfd;" horiz-adv-x="989" d="M110 24v316q78 -72 187 -72q84 0 147.5 41t93.5 111h-321v234h309q-32 59 -92 93.5t-131 34.5q-93 0 -193 -74v316q110 62 246 62q124 0 231 -42t187.5 -118t125 -181.5t44.5 -230.5q0 -156 -77.5 -281.5t-209 -196.5t-285.5 -71q-144 -1 -262 59z" />
<glyph unicode="&#xfe;" horiz-adv-x="1906" d="M116 0v1050h374v-366h168q52 190 213 296t379 106q128 0 239 -37.5t195 -110t131 -177.5t47 -237q0 -130 -47 -234t-131 -177t-196 -110.5t-238 -37.5q-220 0 -383 108t-211 302h-166v-375h-374zM1030 524q0 -105 55 -170t165 -65q108 0 163 65.5t55 169.5t-55 171 t-163 67t-164 -67t-56 -171z" />
<glyph unicode="&#xff;" horiz-adv-x="1153" d="M-41 0l315 416q-162 112 -162 299q0 167 124 251t315 84h485v-1050h-370v398h-4l-232 -398h-471zM496 698q0 -51 30 -70q28 -18 100 -18h40v176h-40q-130 0 -130 -88z" />
<glyph unicode="&#x2000;" horiz-adv-x="1066" />
<glyph unicode="&#x2001;" horiz-adv-x="2132" />
<glyph unicode="&#x2002;" horiz-adv-x="1066" />
<glyph unicode="&#x2003;" horiz-adv-x="2132" />
<glyph unicode="&#x2004;" horiz-adv-x="710" />
<glyph unicode="&#x2005;" horiz-adv-x="533" />
<glyph unicode="&#x2006;" horiz-adv-x="355" />
<glyph unicode="&#x2007;" horiz-adv-x="355" />
<glyph unicode="&#x2008;" horiz-adv-x="266" />
<glyph unicode="&#x2009;" horiz-adv-x="426" />
<glyph unicode="&#x200a;" horiz-adv-x="118" />
<glyph unicode="&#x2010;" horiz-adv-x="803" d="M108 504v307h586v-307h-586z" />
<glyph unicode="&#x2011;" horiz-adv-x="803" d="M108 504v307h586v-307h-586z" />
<glyph unicode="&#x2012;" horiz-adv-x="803" d="M108 504v307h586v-307h-586z" />
<glyph unicode="&#x2013;" horiz-adv-x="1024" d="M0 504v307h1024v-307h-1024z" />
<glyph unicode="&#x2014;" horiz-adv-x="2048" d="M0 504v307h2048v-307h-2048z" />
<glyph unicode="&#x2018;" horiz-adv-x="762" d="M39 866l377 678h238l-267 -678h-348z" />
<glyph unicode="&#x2019;" horiz-adv-x="762" d="M108 866l267 678h348l-377 -678h-238z" />
<glyph unicode="&#x201a;" horiz-adv-x="692" d="M39 -286l266 677h349l-378 -677h-237z" />
<glyph unicode="&#x201c;" horiz-adv-x="1286" d="M39 866l377 678h238l-267 -678h-348zM563 866l377 678h238l-266 -678h-349z" />
<glyph unicode="&#x201d;" horiz-adv-x="1286" d="M108 866l267 678h348l-377 -678h-238zM633 866l266 678h348l-377 -678h-237z" />
<glyph unicode="&#x201e;" horiz-adv-x="1216" d="M39 -286l266 677h349l-378 -677h-237zM563 -286l267 677h348l-377 -677h-238z" />
<glyph unicode="&#x2022;" d="M318 772q0 104 50.5 193.5t139 141.5t196.5 52t197 -52t139 -141t50 -194q0 -104 -50.5 -193t-139 -140.5t-196.5 -51.5t-196.5 51.5t-139 140.5t-50.5 193z" />
<glyph unicode="&#x2026;" horiz-adv-x="2048" d="M102 198q0 66 32 121t87 87t121 32t121 -32t87 -87t32 -121q0 -65 -32 -119.5t-88 -87t-120 -32.5t-120 32.5t-88 87.5t-32 119zM784 198q0 66 32 121t87 87t121 32t121 -32t87 -87t32 -121q0 -65 -32 -119.5t-88 -87t-120 -32.5t-120 32.5t-88 87.5t-32 119zM1466 198 q0 66 32 121t87 87t121 32t121 -32t87 -87t32 -121q0 -65 -32 -119.5t-88 -87t-120 -32.5t-120 32.5t-88 87.5t-32 119z" />
<glyph unicode="&#x202f;" horiz-adv-x="426" />
<glyph unicode="&#x2039;" horiz-adv-x="725" d="M53 656l353 503l204 -141l-258 -362l264 -357l-210 -147z" />
<glyph unicode="&#x203a;" horiz-adv-x="725" d="M108 299l264 357l-258 362l206 141l352 -503l-352 -504z" />
<glyph unicode="&#x205f;" horiz-adv-x="533" />
<glyph unicode="&#x2122;" horiz-adv-x="1925" d="M84 1384v160h702v-160h-252v-667h-198v667h-252zM887 717v827h291l186 -490l186 490h291v-827h-180v667h-4l-240 -667h-107l-239 667h-4v-667h-180z" />
<glyph unicode="&#x25fc;" horiz-adv-x="1050" d="M0 0v1050h1050v-1050h-1050z" />
</font>
</defs>
</svg>
