<?xml version="1.0" standalone="no"?>
<!DOCTYPE svg PUBLIC "-//W3C//DTD SVG 1.1//EN" "http://www.w3.org/Graphics/SVG/1.1/DTD/svg11.dtd" >
<svg xmlns="http://www.w3.org/2000/svg" xmlns:xlink="http://www.w3.org/1999/xlink" version="1.1">
<metadata></metadata>
<defs>
<font id="houschkaboldregular" horiz-adv-x="1024" >
<font-face units-per-em="2048" ascent="1638" descent="-410" />
<missing-glyph horiz-adv-x="569" />
<glyph horiz-adv-x="0" />
<glyph unicode="&#xd;" />
<glyph unicode=" "  horiz-adv-x="569" />
<glyph unicode="&#x09;" horiz-adv-x="569" />
<glyph unicode="&#xa0;" horiz-adv-x="569" />
<glyph unicode="!" horiz-adv-x="608" d="M154 133q0 -63 44 -107t107 -44t107.5 44t44.5 107q0 61 -44 105.5t-108 44.5q-63 0 -107 -44t-44 -106zM154 1110q0 -51 4 -105.5t12 -113.5l72 -520q0 -20 26 -21h72q27 0 29 21l69 520q8 61 12.5 116.5t4.5 102.5q0 303 -150 303q-152 0 -151 -303z" />
<glyph unicode="&#x22;" />
<glyph unicode="#" horiz-adv-x="1196" d="M2 240q0 -25 25 -25h135l-76 -356q-6 -25 27 -25h137q18 0 24 25l76 356h357l-74 -356q-4 -25 24 -25h140q20 0 24 25l74 356h276q25 0 25 25v131q0 25 -25 24h-237l63 310h174q25 0 25 24v129q0 27 -25 27h-135l74 354q2 25 -25 25h-139q-23 0 -24 -25l-74 -354h-359 l74 354q8 25 -24 25h-138q-18 0 -26 -25l-74 -354h-274q-25 0 -25 -27v-129q0 -25 25 -24h237l-65 -310h-172q-25 0 -25 -24v-131zM387 395l66 310h356l-64 -310h-358z" />
<glyph unicode="$" horiz-adv-x="1077" d="M76 969q0 -186 143 -291q33 -23 85 -48.5t128 -51.5v-369q-61 12 -119 47q-10 8 -29.5 21.5t-45.5 35.5q-23 16 -33 -4l-117 -149q-14 -16 4 -33q162 -121 340 -139v-66q0 -27 25 -26h170q27 0 26 26v70q162 29 255 130t93 251q0 156 -100 254q-86 80 -248 133v330 q53 -23 90 -42.5t58 -33.5q18 -12 33 6l102 158q12 18 -6 32q-135 82 -277 105v82q0 27 -26 26h-170q-25 0 -25 -26v-82q-174 -25 -265 -117t-91 -229zM311 969q0 96 121 125v-260q-121 53 -121 135zM653 217v291q111 -47 111 -135q0 -117 -111 -156z" />
<glyph unicode="%" horiz-adv-x="1433" d="M51 1100q0 -131 92 -223q94 -90 222 -91q127 0 219 93q94 92 94 221t-94 221q-92 92 -219 92q-129 0 -221.5 -92t-92.5 -221zM150 6q-16 -25 8 -24h217q2 0 24 24l887 1383q14 25 -14 24h-211q-4 0 -25 -24zM246 1100q0 47 35.5 83t83.5 36q49 0 83.5 -35t34.5 -84 q0 -51 -33.5 -85t-84.5 -34q-47 0 -83 35t-36 84zM756 293q0 -131 92 -223q94 -90 221 -90t219 92q94 92 94 221t-94 221q-92 92 -219 92q-129 0 -221 -92t-92 -221zM950 293q0 47 36 83t83 36q51 0 86 -35t35 -84q0 -51 -35 -85t-86 -34q-47 0 -83 35t-36 84z" />
<glyph unicode="&#x26;" horiz-adv-x="1419" d="M88 401q0 -190 137 -307t363 -117q223 0 381 123q168 -119 307 -118q27 -1 27 24v182q0 25 -27 25q-66 10 -152 66q86 150 86 335q0 25 -24 25h-191q-25 0 -24 -25q0 -90 -29 -180q-123 119 -235 283q150 76 211 143q86 92 86 234q0 125 -95 206q-94 84 -229 84 q-223 0 -315 -131q-55 -80 -56 -190q0 -102 72 -258q-293 -152 -293 -404zM332 401q0 117 160 207q106 -164 301 -358l8 -8q-90 -59 -213 -60q-147 0 -211 82q-45 53 -45 137zM547 1059q0 133 127 123q43 -4 67 -37q19 -28 19 -51q0 -109 -166 -191q-47 98 -47 156z" />
<glyph unicode="'" horiz-adv-x="299" d="M-33 1264q0 -129 137 -144q8 -125 -104 -205q-20 -14 -8 -30l18 -25q4 -4 25 -4q117 37 192 139q72 96 72 205q0 98 -47 155.5t-129 57.5q-70 0 -113 -39t-43 -110z" />
<glyph unicode="(" horiz-adv-x="606" d="M53 475q0 -334 191 -649q129 -215 227 -285q27 -18 35 -18h90q12 0 14 8t-2 16q-283 399 -282 928q0 528 282 928q4 8 2 16t-14 8h-90q-8 0 -35 -18q-98 -70 -227 -285q-190 -317 -191 -649z" />
<glyph unicode=")" horiz-adv-x="604" d="M-2 -453q-18 -25 10 -24h90q6 0 35 18q100 70 229 285q191 315 191 649q0 332 -191 649q-129 215 -229 285q-29 18 -35 18h-90q-29 0 -10 -24q281 -391 281 -928t-281 -928z" />
<glyph unicode="*" horiz-adv-x="870" d="M125 1028l57 -98q6 -16 27 -8l149 88v-174q0 -18 21 -19h113q20 0 20 19v174l150 -88q16 -10 26 8l57 98q10 16 -8 27l-149 86l149 88q16 6 8 26l-57 99q-12 14 -26 6l-150 -86v172q0 20 -20 20h-113q-20 0 -21 -20v-172l-149 86q-16 10 -27 -6l-57 -99q-8 -18 8 -26 l150 -88l-150 -86q-20 -12 -8 -27z" />
<glyph unicode="+" horiz-adv-x="1196" d="M115 641q0 -27 24 -27h350v-348q0 -25 25 -24h166q25 0 25 24v348h350q24 0 24 27v164q0 27 -24 26h-350v349q0 25 -25 24h-166q-25 0 -25 -24v-349h-350q-25 0 -24 -26v-164z" />
<glyph unicode="," horiz-adv-x="518" d="M98 129q0 -129 138 -143q-12 -53 -29 -80q-23 -37 -90 -84q-23 -10 -11 -31l39 -45q6 -6 25 -6q123 41 192 135q68 89 68 191q0 98 -47 155.5t-129 57.5q-70 0 -113 -39t-43 -111z" />
<glyph unicode="-" horiz-adv-x="845" d="M174 350q0 -25 25 -24h448q25 -1 25 24v172q0 25 -25 25h-448q-25 0 -25 -25v-172z" />
<glyph unicode="." horiz-adv-x="503" d="M100 133q0 -63 44 -107t108 -44q61 0 105 44t44 107q0 61 -44 105.5t-105 44.5q-63 0 -107.5 -44t-44.5 -106z" />
<glyph unicode="/" horiz-adv-x="907" d="M-39 -6q-12 -25 21 -25h223q12 0 24 25l721 1407q12 25 -20 24h-223q-14 0 -27 -24z" />
<glyph unicode="0" horiz-adv-x="1226" d="M100 694q0 -354 130 -535.5t382 -181.5q254 0 384 181.5t130 535.5q0 719 -514 719q-252 0 -382 -181t-130 -538zM344 694q0 489 268 490q267 -1 267 -490t-267 -489q-268 0 -268 489z" />
<glyph unicode="1" horiz-adv-x="788" d="M53 1149q0 -31 25 -27l207 31v-932h-181q-25 0 -24 -24v-172q0 -25 24 -25h605q26 0 26 25v172q0 25 -26 24h-177v1168q0 25 -24 24h-160q-8 0 -26 -6l-242 -78q-27 -8 -27 -24v-156z" />
<glyph unicode="2" horiz-adv-x="1132" d="M100 33q0 -33 29 -33h872q25 0 25 25v174q0 25 -25 24h-626q12 160 237 281q104 57 171 98t96 68q153 135 153 338q0 176 -129 290q-127 115 -321 115q-258 0 -482 -205q-14 -12 0 -32l113 -150q14 -20 29 -8q98 86 137 110q90 57 184 58q121 0 182 -68q43 -49 43 -110 q0 -88 -45 -146q-18 -25 -51 -48t-72.5 -46t-85 -46.5t-88.5 -47.5q-193 -111 -282 -268q-63 -113 -64 -302v-71z" />
<glyph unicode="3" horiz-adv-x="1067" d="M16 190q-12 -16 9 -34q199 -174 473 -174q213 0 340 108q127 111 127 285q0 254 -230 354q178 94 178 318q0 158 -106 258q-115 109 -299 108q-131 0 -229 -45q-80 -35 -185 -127q-20 -18 -8 -35l109 -147q16 -23 34 -6q137 135 279 135q162 0 162 -146q0 -92 -58 -151 q-70 -72 -188 -70l-133 2q-27 0 -27 -24v-176q0 -27 27 -25l133 2q141 2 220 -59.5t77 -165.5q-4 -66 -53 -111q-66 -55 -189 -55q-160 0 -321 145q-18 16 -35 -6z" />
<glyph unicode="4" horiz-adv-x="1095" d="M51 303q0 -25 25 -24h508v-254q0 -25 26 -25h199q25 0 25 25v254h186q24 -1 24 24v172q0 25 -24 25h-186v870q0 25 -25 25h-191q-20 0 -34 -25l-527 -870q-6 -10 -6 -25v-172zM307 500l279 465v-465h-279z" />
<glyph unicode="5" horiz-adv-x="1056" d="M63 166q109 -98 173 -131q106 -53 262 -53q207 0 346 141q139 143 139 350q0 217 -121 350q-121 135 -327 135q-86 0 -179 -34l21 250h506q25 0 24 24v172q0 25 -24 25h-703q-25 0 -26 -25l-56 -729q-4 -18 25 -25l160 -34q14 -4 22 16q74 137 230 137q90 0 145 -65 q59 -72 59 -197q0 -113 -69.5 -188.5t-171.5 -75.5q-90 0 -156 35q-49 29 -123 108q-16 18 -35 -4l-121 -151q-16 -18 0 -31z" />
<glyph unicode="6" horiz-adv-x="1128" d="M80 631q0 -649 495 -649q205 0 336 124q134 125 138 320q4 223 -121 350q-121 123 -314 123q-162 0 -280 -98q55 385 301 385q131 0 231 -82q20 -14 35 4l119 152q14 20 -4 34q-43 29 -77 48.5t-56 29.5q-104 41 -248 41q-317 0 -455 -276q-100 -195 -100 -506zM330 516 q100 156 284 156q84 0 134 -56q59 -67 57 -190q-2 -86 -62 -152q-66 -66 -168 -65q-219 0 -245 307z" />
<glyph unicode="7" horiz-adv-x="968" d="M33 1018q0 -25 24 -25h172q25 0 25 25v156h465q-70 -123 -108 -189.5t-42 -77.5l-428 -882q-4 -8 5.5 -16.5t19.5 -8.5h217q25 0 37 25l532 1155q11 24 11 30v160q0 25 -25 25h-881q-25 0 -24 -25v-352z" />
<glyph unicode="8" horiz-adv-x="1177" d="M80 362q0 -178 135 -279t377 -101t374 101t132 279q0 133 -62 218q-55 76 -205 155q215 117 216 324q0 156 -125 254q-121 100 -332 100t-332 -100q-123 -98 -123 -254q0 -211 213 -320q-268 -127 -268 -377zM326 362q0 147 262 256q66 -33 111.5 -61.5t74.5 -50.5 q80 -68 80 -144q0 -154 -262 -153q-266 0 -266 153zM377 1059q0 41 33 74q57 53 180 53t178 -56q33 -32 33 -71q0 -115 -203 -207q-221 106 -221 207z" />
<glyph unicode="9" horiz-adv-x="1132" d="M82 969q-4 -223 121 -351q119 -123 315 -122q158 0 279 98q-53 -385 -301 -385q-131 0 -232 82q-20 14 -35 -4l-118 -152q-14 -20 4 -35q41 -29 73.5 -48t59.5 -29q104 -41 248 -41q315 0 454 276q101 195 101 506q0 649 -496 649q-201 0 -338 -127q-133 -127 -135 -317z M326 969q2 88 63.5 152.5t165.5 64.5q217 0 246 -307q-100 -156 -283 -156q-84 0 -135 55q-59 68 -57 191z" />
<glyph unicode=":" horiz-adv-x="501" d="M100 133q0 -63 44 -107t108 -44q61 0 105 44t44 107q0 61 -44 105.5t-105 44.5q-63 0 -107.5 -44t-44.5 -106zM100 786q0 -61 44 -105t108 -44q61 0 105 44t44 105q0 63 -44 107.5t-105 44.5q-63 0 -107.5 -44t-44.5 -108z" />
<glyph unicode=";" horiz-adv-x="516" d="M98 129q0 -129 138 -143q-12 -53 -29 -80q-23 -37 -90 -84q-23 -10 -11 -31l39 -45q6 -6 25 -6q123 41 192 135q68 89 68 191q0 98 -47 155.5t-129 57.5q-70 0 -113 -39t-43 -111zM100 786q0 -61 44 -105t108 -44q61 0 105 44t44 105q0 63 -44 107.5t-105 44.5 q-63 0 -107.5 -44t-44.5 -108z" />
<glyph unicode="&#x3c;" horiz-adv-x="1230" d="M178 606q0 -29 27 -37l889 -354q24 -11 24 14v207q0 29 -26 37l-680 252l680 254q27 8 26 35v207q0 23 -24 14l-889 -354q-27 -8 -27 -35v-240z" />
<glyph unicode="=" horiz-adv-x="1196" d="M115 434q0 -25 24 -24h918q24 -1 24 24v166q0 25 -24 25h-918q-25 0 -24 -25v-166zM115 846q0 -25 24 -25h918q24 0 24 25v166q0 25 -24 24h-918q-25 0 -24 -24v-166z" />
<glyph unicode="&#x3e;" horiz-adv-x="1234" d="M119 229q0 -25 24 -14l889 354q27 8 27 37v240q0 27 -27 35l-889 354q-25 8 -24 -14v-207q0 -27 26 -35l680 -254l-680 -252q-27 -8 -26 -37v-207z" />
<glyph unicode="?" horiz-adv-x="997" d="M39 1178l106 -156q16 -25 35 -6q154 164 324 164q123 0 184 -66q45 -45 45 -106q0 -86 -69 -144q-39 -31 -78 -61.5t-78 -61.5q-76 -68 -111 -139q-41 -92 -41 -227q0 -25 27 -25h188q29 0 29 25q-2 100 49 170q29 39 109 94q127 84 174 156q55 82 55 213q0 176 -135 290 q-133 115 -330 115q-252 0 -475 -201q-20 -18 -8 -34zM334 133q0 -63 44 -107t107 -44t107.5 44t44.5 107q0 61 -44 105.5t-108 44.5q-63 0 -107 -44t-44 -106z" />
<glyph unicode="@" horiz-adv-x="1841" d="M205 678q0 -328 215 -531q217 -203 553 -202q287 0 487 75q23 10 15 31l-29 72q-8 20 -29 12q-16 -4 -29.5 -8t-21.5 -6q-176 -53 -393 -53q-147 0 -262 45q-172 63 -275 204q-109 152 -108 342q0 262 194 445q186 174 449 174q223 0 375 -119q170 -133 170 -356 q0 -154 -82 -285q-80 -129 -156 -129q-29 0 -29 51v351q0 178 -121 256q-84 53 -208 53q-176 0 -308 -101q-16 -16 -6 -30l74 -109q12 -18 31 -6q102 70 209 70q70 0 100 -56q23 -41 16 -82l-147 -18q-53 -8 -91 -17.5t-65 -23.5q-156 -76 -155 -227q0 -115 81 -195 q84 -78 201 -78q145 0 195 64q27 -68 106 -68q221 0 363 209q114 177 114 363q0 272 -196 442q-186 162 -477 162q-311 0 -537 -213q-223 -211 -223 -508zM788 485q-10 74 89 103q6 2 46 9t113 17v-147q-53 -61 -145 -61q-33 0 -60 18q-41 20 -43 61z" />
<glyph unicode="A" horiz-adv-x="1374" d="M141 25q0 -25 25 -25h199q25 0 24 25v421h596v-421q0 -25 25 -25h198q25 0 25 25v792q0 238 -131 406q-152 190 -414 190q-264 0 -414 -190q-133 -170 -133 -406v-792zM389 668v145q0 168 82 266.5t217 98.5t216 -96.5t81 -268.5v-145h-596z" />
<glyph unicode="B" horiz-adv-x="1261" d="M162 25q0 -25 24 -25h531q197 0 325 86q160 107 160 289q0 283 -293 366q0 4 2 7q176 84 176 292q0 188 -165 287q-115 68 -271 68h-465q-25 0 -24 -25v-1345zM410 221v371h239q299 0 299 -184q0 -100 -86 -150q-66 -37 -178 -37h-274zM410 813v361h213q78 0 129 -27 q82 -39 82 -131q0 -203 -312 -203h-112z" />
<glyph unicode="C" horiz-adv-x="1300" d="M80 698q0 -307 211 -512q212 -206 507 -206h3q256 0 438 147q20 15 8 35l-106 153q-12 23 -33 9q-49 -29 -76.5 -45.5t-34.5 -20.5q-84 -39 -196 -39q-190 0 -330 139q-135 141 -135 340q0 195 137 334q137 143 328 144q141 0 305 -109q20 -14 35 6l104 160q14 20 -6 35 q-217 145 -438 145q-295 0 -508 -211q-213 -213 -213 -504z" />
<glyph unicode="D" horiz-adv-x="1488" d="M162 25q0 -25 24 -25h510q293 0 504 201q209 198 209 497q0 289 -201 494q-201 203 -493 203h-529q-25 0 -24 -25v-1345zM410 225v953h206q252 0 385 -123q154 -146 154 -357q0 -197 -139 -336q-137 -137 -336 -137h-270z" />
<glyph unicode="E" horiz-adv-x="1241" d="M162 25q0 -25 24 -25h992q24 0 24 25v172q0 25 -24 24h-768v369h659q25 0 25 26v170q0 25 -25 25h-659v363h768q25 0 24 24v172q0 25 -24 25h-992q-25 0 -24 -25v-1345z" />
<glyph unicode="F" horiz-adv-x="1179" d="M162 25q0 -25 24 -25h199q25 0 25 25v565h604q27 0 26 26v170q0 25 -26 25h-604v363h706q25 -1 25 24v172q0 25 -25 25h-930q-25 0 -24 -25v-1345z" />
<glyph unicode="G" horiz-adv-x="1544" d="M80 698q0 -301 209 -510q210 -208 509 -208h3q193 0 354 88v-43q0 -25 25 -25h198q25 0 25 25v682q0 27 -25 26h-540q-25 0 -25 -26v-185q0 -25 25 -24h317v-162q-139 -117 -354 -117q-193 0 -330 137q-135 137 -135 342q0 195 137 334q137 143 328 144q147 0 305 -109 q20 -14 35 6l104 160q14 20 -6 35q-217 145 -438 145q-299 0 -510 -211t-211 -504z" />
<glyph unicode="H" horiz-adv-x="1458" d="M162 25q0 -25 24 -25h199q25 0 25 25v565h639v-565q0 -25 24 -25h199q24 0 24 25v1345q0 25 -24 25h-199q-25 0 -24 -25v-559h-639v559q0 25 -25 25h-199q-25 0 -24 -25v-1345z" />
<glyph unicode="I" horiz-adv-x="571" d="M162 25q0 -25 24 -25h199q25 0 25 25v1345q0 25 -25 25h-199q-25 0 -24 -25v-1345z" />
<glyph unicode="J" horiz-adv-x="1015" d="M20 154q-18 -18 5 -41q137 -131 344 -131q223 0 368 133q158 147 158 413v842q0 25 -27 25h-196q-27 0 -27 -25v-850q0 -160 -82 -241q-74 -74 -194 -74q-115 0 -191 74q-18 16 -35 0z" />
<glyph unicode="K" horiz-adv-x="1257" d="M162 25q0 -25 24 -25h199q25 0 25 25v469l88 106l417 -577q16 -23 39 -23h265q30 0 10 33l-561 753l491 576q10 12 6 22.5t-14 10.5h-279q-23 0 -41 -25l-421 -543v543q0 25 -25 25h-199q-25 0 -24 -25v-1345z" />
<glyph unicode="L" horiz-adv-x="1003" d="M162 25q0 -25 24 -25h764q25 0 25 25v172q0 25 -25 24h-540v1149q0 25 -25 25h-199q-25 0 -24 -25v-1345z" />
<glyph unicode="M" horiz-adv-x="1683" d="M162 25q0 -25 24 -25h191q25 0 24 25v888l336 -557q14 -25 27 -24h156q10 0 26 24l336 557v-888q0 -25 25 -25h190q25 0 25 25v1345q0 25 -25 25h-190q-10 0 -25 -25l-440 -731l-441 731q-16 25 -24 25h-191q-25 0 -24 -25v-1345z" />
<glyph unicode="N" horiz-adv-x="1523" d="M162 25q0 -25 24 -25h183q25 0 24 25v954l744 -971q6 -8 18 -8h182q27 0 27 25v1345q0 25 -27 25h-182q-25 0 -25 -25v-952l-737 964q-12 12 -24 13h-183q-25 0 -24 -25v-1345z" />
<glyph unicode="O" horiz-adv-x="1615" d="M80 696q0 -303 213 -510q212 -204 513 -204h3q303 0 514 204q213 207 213 510q0 301 -215 514q-211 205 -512 205q-299 0 -516 -207q-213 -207 -213 -512zM334 696q0 197 139 340q137 143 336 144q199 0 336 -144q139 -145 139 -340t-139 -338q-139 -141 -336 -141 q-199 0 -336 141q-139 143 -139 338z" />
<glyph unicode="P" horiz-adv-x="1323" d="M162 25q0 -25 24 -25h199q25 0 25 25v415h366q201 0 340 135.5t139 342.5t-139 342t-340 135h-590q-25 0 -24 -25v-1345zM410 659v517h313q123 0 195 -64q83 -71 83 -194t-83 -195q-72 -63 -195 -64h-313z" />
<glyph unicode="Q" horiz-adv-x="1615" d="M80 696q0 -252 158 -446q150 -186 389 -246l-4 -92q0 -23 26 -25q35 -6 67 -12t60 -10q82 -16 166 -38t174 -50q227 -72 256 -80q12 -4 41 24l150 140q10 10 8 22.5t-10 14.5q-59 8 -122 17t-128 24q-59 12 -127 28.5t-146 36.5q-23 6 0 12q221 72 359 254 q139 188 139 426q0 301 -215 514q-211 205 -512 205q-299 0 -516 -207q-213 -207 -213 -512zM334 696q0 197 139 340q137 143 336 144q199 0 336 -144q139 -145 139 -340t-139 -338q-139 -141 -336 -141q-199 0 -336 141q-139 143 -139 338z" />
<glyph unicode="R" horiz-adv-x="1343" d="M162 25q0 -25 24 -25h199q25 0 25 25v479h245l291 -479q14 -25 41 -25h234q33 0 12 33l-297 483q150 35 244 154q96 120 96 278q0 182 -129 316q-129 131 -309 131h-652q-25 0 -24 -25v-1345zM410 723v453h374q84 0 156 -60q82 -68 82 -168q0 -98 -78 -164 q-78 -61 -168 -61h-366z" />
<glyph unicode="S" horiz-adv-x="1116" d="M59 1034q0 -199 156 -311q33 -23 89 -50.5t140 -56.5q59 -18 119 -36.5t119 -38.5q119 -49 119 -144q0 -184 -254 -184q-115 0 -201 43q-37 20 -113 78q-23 16 -36 -4l-123 -158q-16 -23 4 -37q210 -153 466 -153h3q231 0 370.5 114.5t139.5 300.5q0 174 -121 283 q-96 82 -289 141q-193 61 -231 82q-102 53 -103 131q0 145 256 146q125 0 271 -99q23 -10 34 9l111 165q16 23 -6 35q-199 121 -408 121q-246 0 -379 -101.5t-133 -275.5z" />
<glyph unicode="T" horiz-adv-x="1038" d="M-14 1198q0 -25 24 -24h385v-1149q0 -25 25 -25h198q25 0 25 25v1149h385q25 -1 25 24v172q0 25 -25 25h-1018q-25 0 -24 -25v-172z" />
<glyph unicode="U" horiz-adv-x="1427" d="M141 553q0 -133 39 -238.5t113 -179.5t180.5 -113.5t241.5 -39.5t241.5 39.5t179 113.5t111.5 179.5t39 238.5v817q0 25 -24 25h-199q-25 0 -25 -25v-792q0 -360 -323 -361q-326 0 -326 361v792q0 25 -24 25h-199q-25 0 -25 -25v-817z" />
<glyph unicode="V" horiz-adv-x="1277" d="M-2 1370l504 -1352q8 -25 24 -24h224q14 0 26 24l504 1352q8 25 -27 25h-221q-16 0 -24 -25l-369 -1059l-369 1059q-12 25 -24 25h-221q-37 0 -27 -25z" />
<glyph unicode="W" horiz-adv-x="2091" d="M123 522q0 -268 166 -411q143 -129 356 -129q250 0 399 186q150 -186 400 -186q213 0 358 129q166 143 166 411v848q0 25 -26 25h-197q-27 0 -27 -25v-850q0 -154 -86 -233q-72 -70 -188 -70q-274 0 -275 330v823q0 25 -24 25h-199q-25 0 -24 -25v-823q0 -330 -277 -330 q-115 0 -186 70q-88 82 -88 233v850q0 25 -25 25h-199q-25 0 -24 -25v-848z" />
<glyph unicode="X" horiz-adv-x="1382" d="M-6 14q0 -14 14 -14h266q23 0 45 29l373 479l371 -479q23 -29 45 -29h264q12 0 17 12q3 11 -7 21l-544 657l538 670q23 35 -10 35h-264q-23 0 -45 -29l-369 -485l-364 485q-23 29 -45 29h-265q-16 0 -16 -13q0 -12 8 -20l539 -672l-545 -655q-8 -8 -6 -21z" />
<glyph unicode="Y" horiz-adv-x="1259" d="M-18 1382q0 -12 6 -20l518 -707v-630q0 -25 24 -25h199q25 0 25 25v628l520 709q6 8 6 20q-4 12 -16 13h-256q-29 0 -43 -25l-336 -491l-332 491q-16 25 -43 25h-256q-14 0 -16 -13z" />
<glyph unicode="Z" horiz-adv-x="1200" d="M39 12q6 -12 20 -12h1078q24 0 24 25v172q0 25 -24 24h-699l692 1139q6 8 0 20q-6 14 -18 15h-1032q-25 0 -25 -25v-172q0 -25 25 -24h645l-686 -1135q-8 -14 0 -27z" />
<glyph unicode="[" horiz-adv-x="731" d="M174 -428q0 -25 25 -25h477q24 0 24 25v149q0 25 -24 25h-258v1452h258q25 0 24 25v149q0 25 -24 25h-477q-25 0 -25 -25v-1800z" />
<glyph unicode="\" horiz-adv-x="626" d="M25 1389l387 -1383q6 -25 24 -24h195q30 -1 24 24l-387 1383q-6 25 -24 24h-195q-31 0 -24 -24z" />
<glyph unicode="]" horiz-adv-x="731" d="M31 -279v-149q0 -25 24 -25h477q25 0 25 25v1800q0 25 -25 25h-477q-25 0 -24 -25v-149q0 -25 24 -25h258v-1452h-258q-25 0 -24 -25z" />
<glyph unicode="^" />
<glyph unicode="_" horiz-adv-x="1026" d="M-18 -158v-116q0 -25 24 -25h1014q27 0 27 25v116q0 25 -27 25h-1014q-25 0 -24 -25z" />
<glyph unicode="`" horiz-adv-x="716" d="M203 1372l207 -264q8 -14 28 -14h101q28 -1 16 24l-98 252q-12 25 -29 25h-211q-33 0 -14 -23z" />
<glyph unicode="a" horiz-adv-x="995" d="M102 276q0 -139 101 -221q87 -73 204 -73h3q141 0 211 65v-24q0 -23 24 -23h186q21 0 21 23v565q0 199 -141 289q-96 61 -226 61q-172 0 -335 -109q-20 -14 -9 -32l86 -121q12 -18 31 -6q105 75 224 75h3q61 1 101 -41q36 -38 35 -94v-12q-260 -35 -342 -74 q-176 -86 -177 -248zM336 264q-1 5 -1 10q0 55 60 82q16 10 44 18.5t67 16.5q37 8 115 19v-174q-66 -61 -168 -62q-106 0 -117 90z" />
<glyph unicode="b" horiz-adv-x="1089" d="M162 29q0 -20 22 -25q78 -10 152 -16t143 -6q193 0 320 75q211 126 211 402q0 248 -154 381q-115 98 -276 98q-111 0 -187 -45v479q0 23 -22 23h-187q-23 0 -22 -23v-1343zM393 201v458q80 61 185 62q70 0 122 -53q70 -70 70 -209q0 -131 -84 -203q-72 -63 -180 -63 q-29 0 -57.5 2t-55.5 6z" />
<glyph unicode="c" horiz-adv-x="907" d="M80 461q0 -205 141 -342q139 -137 354 -137q172 0 287 79q20 14 4 33l-88 135q-16 18 -33 4q-72 -43 -165 -43q-109 0 -185 80q-76 78 -76 191q0 98 74 182q78 84 187 84q92 0 163 -59q14 -16 31 6l96 139q12 18 -6 33q-139 92 -289 92q-201 0 -350 -139 q-145 -139 -145 -338z" />
<glyph unicode="d" horiz-adv-x="1089" d="M80 459q0 -223 156 -346q139 -113 374 -113h295q23 0 23 23v1349q0 23 -23 23h-184q-25 0 -25 -23v-461q-78 27 -157 27q-158 0 -283 -94q-176 -133 -176 -385zM319 459q0 133 89 209q66 53 131 53q94 0 157 -33v-475h-80q-123 0 -198 49q-98 63 -99 197z" />
<glyph unicode="e" horiz-adv-x="1038" d="M80 471q0 -213 135 -350q135 -139 346 -139q174 0 305 88q27 16 6 39l-98 131q-12 16 -35 0q-66 -47 -161 -52q-88 0 -157 49.5t-89 135.5h598q22 -1 24 26q2 29 3 52.5t1 46.5q0 188 -112 309q-119 131 -314 131q-201 0 -319 -125q-133 -139 -133 -342zM330 578 q10 66 67.5 114.5t128.5 48.5q76 0 130.5 -42.5t60.5 -120.5h-387z" />
<glyph unicode="f" horiz-adv-x="745" d="M78 735q0 -23 22 -22h109v-690q0 -23 24 -23h185q25 0 24 23v690h201q25 0 25 22v162q0 23 -25 23h-201v161q0 123 88 123q63 0 134 -47q23 -16 32 0l82 125q14 20 0 33q-115 86 -278 86q-291 0 -291 -322v-159h-109q-23 0 -22 -23v-162z" />
<glyph unicode="g" horiz-adv-x="1122" d="M80 461q0 -199 102 -332q113 -147 316 -147q141 0 231 59v-98q0 -209 -209 -209q-121 0 -211 96q-23 27 -39 6l-112 -131q-23 -16 0 -33q180 -145 364 -145q211 0 326 116t115 339v915q0 23 -25 23h-184q-25 0 -25 -23v-31q-94 72 -233 72q-205 0 -318 -154 q-98 -133 -98 -323zM319 461q0 266 203 266q119 0 207 -88v-365q-77 -79 -208 -79h-3q-70 0 -117 38q-82 63 -82 228z" />
<glyph unicode="h" horiz-adv-x="1120" d="M162 23q0 -23 22 -23h187q23 0 22 23v426q0 80 13 145q8 45 47 84q45 51 118 51q102 0 144 -65q30 -51 30 -157v-7v-477q0 -23 23 -23h184q25 0 25 23v532q0 172 -92 274q-98 109 -277 109q-139 0 -215 -64v498q0 23 -22 23h-187q-23 0 -22 -23v-1349z" />
<glyph unicode="i" horiz-adv-x="561" d="M145 1260q0 -55 40 -95.5t96 -40.5q55 0 95 40.5t40 95.5t-40 95t-95 40t-95.5 -40t-40.5 -95zM164 23q0 -23 22 -23h187q22 0 22 23v874q0 23 -22 23h-187q-23 0 -22 -23v-874z" />
<glyph unicode="j" horiz-adv-x="559" d="M68 -336l125 -127q14 -14 26 -4q86 55 121 109q55 88 55 235v1020q0 23 -24 23h-185q-25 0 -24 -23v-1040q0 -98 -88 -156q-29 -16 -6 -37zM145 1260q0 -55 39 -95.5t97 -40.5q55 0 95 40.5t40 95.5t-40 95t-95 40q-57 0 -96.5 -40t-39.5 -95z" />
<glyph unicode="k" horiz-adv-x="987" d="M162 23q0 -23 22 -23h187q23 0 22 23v294l56 58l247 -359q12 -16 31 -16h238q34 0 14 31l-369 501l353 357q8 8 4 18q-4 12 -19 13h-246q-14 0 -30 -17l-279 -303v772q0 23 -22 23h-187q-23 0 -22 -23v-1349z" />
<glyph unicode="l" horiz-adv-x="555" d="M162 23q0 -23 22 -23h187q22 0 22 23v1349q0 23 -22 23h-187q-23 0 -22 -23v-1349z" />
<glyph unicode="m" horiz-adv-x="1667" d="M162 23q0 -23 22 -23h187q23 0 22 23v426q0 80 13 145q10 45 45 84q45 51 112 51q100 0 137 -65q27 -47 27 -164v-477q0 -23 23 -23h186q23 0 22 23v444q0 45 2.5 78t8.5 55.5t16 40.5t29 37q45 51 114 51q100 0 138 -67q26 -49 26 -154v-8v-477q0 -23 23 -23h186 q23 0 23 23v532q0 178 -94.5 280.5t-268.5 102.5q-176 0 -295 -104q-90 104 -270 104q-131 0 -203 -64v23q0 23 -22 23h-187q-23 0 -22 -23v-874z" />
<glyph unicode="n" horiz-adv-x="1120" d="M162 23q0 -23 22 -23h187q23 0 22 23v426q0 80 13 145q8 45 47 84q45 51 118 51q102 0 144 -65q30 -51 30 -157v-7v-477q0 -23 23 -23h184q25 0 25 23v532q0 172 -92 274q-98 109 -277 109q-139 0 -215 -64v23q0 23 -22 23h-187q-23 0 -22 -23v-874z" />
<glyph unicode="o" horiz-adv-x="1138" d="M80 459q0 -203 143.5 -340t345.5 -137q201 0 344 137q146 139 146 340t-145.5 340t-344.5 139q-201 0 -346 -139q-143 -137 -143 -340zM311 459q0 115 76 192q76 82 182 82t183 -82q75 -77 75 -192t-75 -193q-78 -80 -183 -80q-106 0 -182 80q-76 78 -76 193z" />
<glyph unicode="p" horiz-adv-x="1089" d="M162 -453q0 -23 22 -22h187q23 0 22 22v453q70 -18 160 -18q164 0 297 108q160 131 160 371q0 231 -152 358q-143 119 -379 119q-72 0 -145.5 -6t-147.5 -21q-25 -4 -24 -22v-1342zM393 209v510q27 4 55.5 6t57.5 2q115 0 188 -68q80 -73 80 -204q0 -133 -82 -207 q-70 -59 -164 -60q-82 0 -135 21z" />
<glyph unicode="q" horiz-adv-x="1091" d="M203 115q123 -133 311 -133q96 0 184 41v-476q0 -23 25 -22h184q23 -1 23 22v1340q0 20 -23 24q-72 14 -144.5 20.5t-150.5 6.5q-233 0 -379 -121q-153 -128 -153 -353q0 -218 123 -349zM319 461q0 135 91 207q76 59 176 59q63 0 112 -6v-293q0 -80 -12 -119 q-33 -112 -170 -112h-2q-82 0 -138.5 70.5t-56.5 193.5z" />
<glyph unicode="r" horiz-adv-x="792" d="M162 23q0 -23 22 -23h187q23 0 22 23v413q0 154 62 232q47 60 112 60q9 0 17 -1q55 -6 80 -41q14 -23 34 -2l119 121q14 14 -4 33q-100 100 -218 100h-13q-111 -6 -181 -88q-8 -10 -8 0v47q0 23 -22 23h-187q-23 0 -22 -23v-874z" />
<glyph unicode="s" horiz-adv-x="806" d="M76 125q-16 -16 2 -33q140 -110 320 -110h3q154 0 245 76.5t91 205.5q0 156 -190 258q-23 10 -48.5 23.5t-58.5 29.5q-129 61 -129 109q0 68 101 68q92 0 157 -41q18 -12 33 2l105 108q18 20 0 33q-125 84 -291 84q-160 0 -249 -67.5t-89 -186.5q0 -113 76 -188 q29 -29 72.5 -57.5t103.5 -57.5q29 -12 55.5 -24.5t52.5 -26.5q68 -41 68 -88q0 -74 -119 -74q-104 0 -170 65q-16 14 -33 -2z" />
<glyph unicode="t" horiz-adv-x="788" d="M45 735q0 -23 23 -22h110v-424q0 -307 303 -307q156 0 267 114q14 21 0 33l-95 100q-18 16 -32 2q-70 -63 -125 -63q-86 0 -86 123v422h247q23 0 23 22v162q0 23 -23 23h-247v176q0 23 -23 22h-186q-23 0 -23 -22v-176h-110q-23 0 -23 -23v-162z" />
<glyph unicode="u" horiz-adv-x="1069" d="M135 371q0 -152 62 -246q92 -143 338 -143q244 0 337 143q62 94 62 246v526q0 23 -23 23h-186q-23 0 -23 -23v-483q0 -100 -10 -138q-16 -47 -67 -73q-41 -20 -90 -21q-49 0 -91 21q-53 27 -67 73q-10 37 -10 138v483q0 23 -23 23h-186q-23 0 -23 -23v-526z" />
<glyph unicode="v" horiz-adv-x="882" d="M4 897l324 -881q10 -23 24 -22h176q14 0 25 22l326 881q10 23 -17 23h-192q-14 0 -23 -25l-196 -596l-197 596q-10 25 -23 25h-208q-29 0 -19 -23z" />
<glyph unicode="w" horiz-adv-x="1650" d="M143 340q0 -160 113 -260q113 -98 287 -98q180 0 282 108q95 -108 280 -108h3q172 0 287 98q114 102 114 260v557q0 23 -24 23h-185q-25 0 -24 -23v-524q0 -184 -168 -185q-166 0 -166 185v524q0 23 -24 23h-185q-23 0 -22 -23v-524q0 -184 -170 -185q-166 0 -166 185 v524q0 23 -23 23h-186q-23 0 -23 -23v-557z" />
<glyph unicode="x" horiz-adv-x="970" d="M-12 10.5q4 -10.5 18 -10.5h238q20 0 32 16l205 297l213 -297q12 -16 35 -16h236q14 0 20 10q4 13 -4 21l-354 438l321 420q6 8 2 18q-4 12 -18 13h-236q-23 0 -32 -17l-172 -270l-185 270q-10 16 -33 17h-235q-16 0 -19 -13q-4 -10 3 -18l321 -420l-352 -438 q-8 -10 -4 -20.5z" />
<glyph unicode="y" horiz-adv-x="888" d="M2 887q121 -299 210 -521.5t148 -375.5q-29 -102 -88 -168q-64 -66 -139 -66q-12 0 -24 2q-25 0 -25 -24v-183q0 -27 25 -22q184 12 299.5 114.5t181.5 309.5l299 934q8 33 -15 33h-215q-23 0 -26 -17q-39 -143 -64.5 -238.5t-38.5 -146.5l-53 -217l-209 602 q-6 16 -32 17h-220q-29 0 -14 -33z" />
<glyph unicode="z" horiz-adv-x="923" d="M66 31q-23 -31 18 -31h766q22 0 22 23v161q0 23 -22 23h-404q141 229 245 399t175 283q18 31 -18 31h-754q-25 0 -24 -23v-162q0 -23 24 -22h389q-287 -479 -417 -682z" />
<glyph unicode="{" horiz-adv-x="735" d="M49 451q0 -25 25 -25h10q113 0 149 -84q25 -61 25 -244v-118q0 -410 395 -410q25 -1 25 24v123q0 25 -25 25q-94 0 -136 52t-42 181v76q0 227 -49 330q-45 90 -172 149q127 59 172 150q49 100 49 330v75q0 129 42 181.5t136 52.5q25 0 25 24v123q0 25 -25 25 q-395 0 -395 -410v-118q0 -182 -25 -244q-37 -84 -149 -84h-10q-25 0 -25 -25v-159z" />
<glyph unicode="|" horiz-adv-x="575" d="M190 -442q0 -25 25 -25h150q24 0 24 25v1812q0 25 -24 25h-150q-25 0 -25 -25v-1812z" />
<glyph unicode="}" horiz-adv-x="735" d="M57 -283v-123q0 -25 25 -24q395 0 395 410v118q0 182 25 244q37 84 149 84h11q24 0 24 25v159q0 25 -24 25h-11q-113 0 -149 84q-25 61 -25 244v118q0 410 -395 410q-25 0 -25 -25v-123q0 -25 25 -24q98 0 139 -52.5t41 -181.5v-75q0 -229 49 -330q43 -90 170 -150 q-127 -59 -170 -149q-49 -102 -49 -330v-76q0 -129 -41 -181t-139 -52q-25 0 -25 -25z" />
<glyph unicode="~" />
<glyph unicode="&#xa1;" horiz-adv-x="608" d="M154 -190q0 -303 151 -304q152 1 152 304q0 51 -4 105t-13 114l-71 520q-2 20 -27 20h-74q-25 0 -26 -20l-72 -520q-8 -59 -12 -113.5t-4 -105.5zM154 786q0 -61 44 -105t107 -44q61 0 105.5 44t44.5 105q0 63 -44 107.5t-106 44.5q-63 0 -107 -44t-44 -108z" />
<glyph unicode="&#xa2;" horiz-adv-x="991" d="M100 461q0 -207 144 -344q94 -92 235 -123v-49q0 -25 27 -25h67q25 0 25 25v37q170 0 285 79q18 16 4 33l-88 135q-16 18 -33 4q-72 -43 -166 -43h-2v537h2q92 0 164 -59q14 -16 31 6l96 139q14 18 -6 33q-135 92 -287 92v47q0 27 -25 27h-67q-27 0 -27 -27v-59 q-164 -41 -268 -166q-111 -133 -111 -299zM340 461q0 70 38 134t101 99v-473q-139 74 -139 240z" />
<glyph unicode="&#xa3;" horiz-adv-x="1103" d="M117 25q0 -25 24 -25h869q27 0 26 25v174q0 25 -26 24h-469v404h276q25 0 25 26v146q0 27 -25 26h-276v129q0 238 174 238q100 0 223 -74q23 -12 35 4l110 142q14 20 -4 34q-45 29 -77.5 48.5t-55.5 27.5q-96 39 -246 39q-254 0 -348 -180q-59 -115 -67 -350l-2 -66 l-140 -16q-27 -2 -26 -25v-123q0 -27 26 -26h142v-404h-144q-25 0 -24 -24v-174z" />
<glyph unicode="&#xa4;" horiz-adv-x="1300" d="M43 477q0 -25 25 -24h122q78 -213 261 -344q186 -129 419 -129q254 0 437 147q22 17 8 35l-105 153q-14 20 -34 9q-47 -29 -75 -45.5t-36 -20.5q-84 -39 -195 -39q-129 0 -233.5 63.5t-165.5 170.5h393q12 0 25 24l80 148q14 25 -13 24h-548q-2 16 -3.5 28.5t-1.5 20.5 q0 10 3 17v16h612q10 0 24 27l80 145q14 25 -14 25h-643q63 113 169.5 180.5t235.5 67.5q147 0 306 -109q18 -12 34 6l105 160q10 23 -8 35q-217 145 -437 145q-233 0 -419 -135q-188 -135 -263 -350h-120q-25 0 -25 -25v-145q0 -27 25 -27h82v-82h-82q-25 0 -25 -24v-148z " />
<glyph unicode="&#xa5;" horiz-adv-x="1259" d="M-18 1382q0 -12 6 -20l415 -567h-268q-25 0 -24 -25v-145q0 -25 24 -25h371v-125h-371q-25 0 -24 -24v-146q0 -25 24 -24h371v-256q0 -25 24 -25h199q25 0 25 25v256h370q25 0 25 24v146q0 25 -25 24h-370v125h370q25 0 25 25v145q0 25 -25 25h-268l418 567q6 8 6 20 q-4 12 -16 13h-256q-29 0 -43 -25l-336 -491l-332 491q-16 25 -43 25h-256q-14 0 -16 -13z" />
<glyph unicode="&#xa6;" />
<glyph unicode="&#xa7;" horiz-adv-x="851" d="M43 535q0 -180 207 -338q47 -35 95 -72t95 -72q90 -84 90 -162q0 -162 -143 -161q-98 0 -160 67q-16 18 -34 0l-105 -112q-18 -18 -6 -31q123 -125 319 -125q139 0 236 86q117 100 117 289q0 106 -60 200q121 132 121 310q0 115 -74 211q-51 66 -166 149 q-131 92 -167 129q-78 78 -78 154q0 84 53 127q37 31 78 30q88 0 166 -77q14 -14 30 2l111 118q14 18 6 31q-117 125 -317 125q-137 0 -238 -88q-117 -102 -117 -285q0 -104 58 -192q-53 -74 -74 -115q-43 -90 -43 -198zM272 543q0 78 43 149q94 -70 141 -104l46 -33 q88 -76 88 -160q0 -82 -58 -141q-135 94 -178 137q-82 76 -82 152z" />
<glyph unicode="&#xa8;" horiz-adv-x="745" d="M53 1260q0 -55 40 -95.5t95 -40.5t95.5 40.5t40.5 95.5t-40 95t-96 40q-55 0 -95 -40t-40 -95zM422 1260q0 -55 40 -95.5t95 -40.5t95 40.5t40 95.5t-40 95t-95 40t-95 -40t-40 -95z" />
<glyph unicode="&#xa9;" horiz-adv-x="1669" d="M80 737q0 -311 219 -534q221 -221 535 -221q313 0 534 221t221 534t-221 533q-221 221 -534 221t-535 -221q-219 -219 -219 -533zM240 737q0 248 172 420q174 174 422 174t421 -174q175 -172 175 -420t-174.5 -422t-421.5 -174q-248 0 -422 174q-172 174 -172 422z M440 729q0 -176 123 -299q127 -121 299 -121q152 0 256 86q14 12 6 27l-61 90q-8 12 -27 6q-8 -6 -15 -10t-11 -8q-70 -41 -148 -41q-111 0 -188 78q-78 82 -78 192q0 109 80 189q80 82 186 81q84 0 174 -59q18 -10 27 4l61 96q8 14 -6 23q-127 86 -256 86q-172 0 -297 -125 q-125 -123 -125 -295z" />
<glyph unicode="&#xaa;" horiz-adv-x="534" d="M43 1018q0 -37 14.5 -70t38 -57.5t56 -38.5t69.5 -14q74 0 123 36v-8q0 -18 21 -18h108q19 0 19 20v334q0 213 -224 213q-109 0 -196 -69q-16 -10 -2 -27l51 -70q8 -12 22 -2q53 45 125 45q82 0 76 -84q-133 -16 -194 -43q-106 -45 -107 -147zM160 575q0 -45 31.5 -76.5 t76.5 -31.5t77 31.5t32 76.5t-32 77t-77 32t-76.5 -31.5t-31.5 -77.5zM170 1008q0 70 174 88v-111q-53 -35 -106 -35q-68 0 -68 58z" />
<glyph unicode="&#xab;" horiz-adv-x="1134" d="M59 461q0 -10 9 -21l272 -413q18 -27 41 -27h199q24 0 10 25l-268 436l268 436q14 25 -10 25h-199q-23 0 -41 -27l-272 -414q-8 -10 -9 -20zM549 461q0 -10 8 -21l270 -413q14 -27 43 -27h199q22 0 8 25l-266 436l266 436q14 25 -8 25h-199q-29 0 -43 -27l-270 -414 q-8 -10 -8 -20z" />
<glyph unicode="&#xac;" />
<glyph unicode="&#xad;" horiz-adv-x="845" d="M174 350q0 -25 25 -24h448q25 -1 25 24v172q0 25 -25 25h-448q-25 0 -25 -25v-172z" />
<glyph unicode="&#xae;" horiz-adv-x="1669" d="M80 737q0 -311 219 -534q221 -221 535 -221q313 0 534 221t221 534t-221 533q-221 221 -534 221t-535 -221q-219 -219 -219 -533zM240 737q0 248 172 420q174 174 422 174t421 -174q175 -172 175 -420t-174.5 -422t-421.5 -174q-248 0 -422 174q-172 174 -172 422z M522 334q0 -18 19 -19h114q18 0 19 19v276h127l178 -278q10 -16 27 -17h139q23 0 10 25l-180 283q203 48 203 249q0 104 -78 182.5t-185 78.5h-374q-18 0 -19 -21v-778zM674 745v250h211q57 0 97 -33t40 -90t-39 -92t-100 -35h-209z" />
<glyph unicode="&#xaf;" />
<glyph unicode="&#xb0;" horiz-adv-x="811" d="M127 1214q0 -115 80 -196q82 -80 196 -80q115 0 195 80q82 81 82 196t-82 195q-80 82 -195 82t-196 -82q-80 -80 -80 -195zM264 1214q0 59 41 99.5t98 40.5q59 0 100.5 -41.5t41.5 -98.5t-41 -99t-101 -42q-57 0 -98 41t-41 100z" />
<glyph unicode="&#xb1;" />
<glyph unicode="&#xb2;" />
<glyph unicode="&#xb3;" />
<glyph unicode="&#xb4;" horiz-adv-x="716" d="M236 1118q-10 -25 18 -24h98q20 0 29 14l207 264q8 8 2 14q-2 8 -17 9h-211q-18 0 -26 -25z" />
<glyph unicode="&#xb5;" horiz-adv-x="1069" d="M135 -330q0 -23 23 -22h186q23 0 23 22v336q70 -25 139 -24q111 0 196 61v-20q0 -23 23 -23h186q23 0 23 23v874q0 23 -23 23h-186q-23 0 -23 -23v-461q0 -109 -10 -145q-35 -109 -157 -109q-49 0 -91 21q-53 27 -67 73q-10 37 -10 138v483q0 23 -23 23h-186 q-23 0 -23 -23v-1227z" />
<glyph unicode="&#xb6;" horiz-adv-x="1236" d="M2 1053q0 -184 106.5 -295t297.5 -121v-1022q0 -25 24 -25h162q25 0 24 25v1651h218v-1651q0 -25 26 -25h160q25 0 24 25v1651h312q24 -1 24 24v152q0 25 -24 24h-883q-227 0 -349 -107.5t-122 -305.5z" />
<glyph unicode="&#xb7;" horiz-adv-x="503" d="M100 707q0 -63 44 -107.5t108 -44.5q61 0 105 44.5t44 107.5t-44 107t-105 44q-63 0 -107.5 -44t-44.5 -107z" />
<glyph unicode="&#xb8;" horiz-adv-x="681" d="M207 -252v-80q0 -18 20 -20q39 -6 72 -4q231 16 231 176q0 53 -34.5 93t-100.5 44l-2 53h-114l-19 -153q10 2 19 2h20q80 0 80 -43q0 -51 -86 -47q-86 2 -86 -21z" />
<glyph unicode="&#xb9;" />
<glyph unicode="&#xba;" horiz-adv-x="679" d="M49 1126q0 -117 84 -204q88 -84 207 -84q121 0 205 84q86 85 86 204t-86 203q-86 86 -205 86t-205 -86q-86 -84 -86 -203zM197 1126q0 61 42 105.5t101 44.5q61 0 102 -44.5t41 -105.5t-41 -105t-102 -44q-59 0 -101 44t-42 105zM231 575q0 -45 32 -76.5t77 -31.5 t77 31.5t32 76.5t-32 77t-77 32t-77 -31.5t-32 -77.5z" />
<glyph unicode="&#xbb;" horiz-adv-x="1134" d="M57 25q-16 -25 9 -25h198q25 0 43 27l273 413q8 10 8 21q0 10 -8 20l-273 414q-18 27 -43 27h-198q-25 0 -9 -25l269 -436zM547 25q-16 -25 8 -25h199q29 0 43 27l270 413q8 10 8 21q0 10 -8 20l-270 414q-14 27 -43 27h-199q-25 0 -8 -25l266 -436z" />
<glyph unicode="&#xbc;" />
<glyph unicode="&#xbd;" />
<glyph unicode="&#xbe;" />
<glyph unicode="&#xbf;" horiz-adv-x="878" d="M-8 -88q0 -176 133 -291q137 -115 332 -115q256 0 475 201q20 19 8 35l-106 156q-16 25 -35 6q-154 -164 -324 -164q-123 0 -184 65q-45 45 -45 107q0 86 69 143q78 61 155 126t112 136q41 92 41 228q0 25 -27 24h-190q-31 0 -27 -24q2 -100 -49 -170q-35 -43 -109 -94 q-63 -43 -107 -82t-67 -74q-55 -84 -55 -213zM342 786q0 -61 44 -105t108 -44q61 0 105 44t44 105q0 63 -44 107.5t-105 44.5q-63 0 -107.5 -44t-44.5 -108z" />
<glyph unicode="&#xc0;" horiz-adv-x="1374" d="M141 25q0 -25 25 -25h199q25 0 24 25v421h596v-421q0 -25 25 -25h198q25 0 25 25v792q0 238 -131 406q-152 190 -414 190q-264 0 -414 -190q-133 -170 -133 -406v-792zM389 668v145q0 168 82 266.5t217 98.5t216 -96.5t81 -268.5v-145h-596zM563 1821l207 -264 q8 -14 28 -14h101q28 -1 16 24l-98 252q-12 25 -29 25h-211q-33 0 -14 -23z" />
<glyph unicode="&#xc1;" horiz-adv-x="1374" d="M141 25q0 -25 25 -25h199q25 0 24 25v421h596v-421q0 -25 25 -25h198q25 0 25 25v792q0 238 -131 406q-152 190 -414 190q-264 0 -414 -190q-133 -170 -133 -406v-792zM389 668v145q0 168 82 266.5t217 98.5t216 -96.5t81 -268.5v-145h-596zM584 1564q-10 -25 18 -24h98 q20 0 29 14l207 264q8 8 2 14q-2 8 -17 9h-211q-18 0 -26 -25z" />
<glyph unicode="&#xc2;" horiz-adv-x="1374" d="M141 25q0 -25 25 -25h199q25 0 24 25v421h596v-421q0 -25 25 -25h198q25 0 25 25v792q0 238 -131 406q-152 190 -414 190q-264 0 -414 -190q-133 -170 -133 -406v-792zM389 668v145q0 168 82 266.5t217 98.5t216 -96.5t81 -268.5v-145h-596zM411 1556q-14 -27 13 -27h98 q4 0 27 19l149 135l148 -135q20 -18 26 -19h98q27 0 13 27l-146 264q-12 20 -28 21h-224q-16 0 -28 -21z" />
<glyph unicode="&#xc3;" horiz-adv-x="1374" d="M141 25q0 -25 25 -25h199q25 0 24 25v421h596v-421q0 -25 25 -25h198q25 0 25 25v792q0 238 -131 406q-152 190 -414 190q-264 0 -414 -190q-133 -170 -133 -406v-792zM379 1569q0 -25 20 -25h64q12 0 18 12q18 43 64 44q29 0 127 -29q92 -27 147 -27q147 0 182 246 q2 25 -20 25h-57q-12 0 -21 -15q-27 -45 -61 -45q-16 0 -129 25q-106 27 -168 26q-137 0 -166 -237zM389 668v145q0 168 82 266.5t217 98.5t216 -96.5t81 -268.5v-145h-596z" />
<glyph unicode="&#xc4;" horiz-adv-x="1374" d="M141 25q0 -25 25 -25h199q25 0 24 25v421h596v-421q0 -25 25 -25h198q25 0 25 25v792q0 238 -131 406q-152 190 -414 190q-264 0 -414 -190q-133 -170 -133 -406v-792zM372 1637q0 -55 40 -95.5t95 -40.5t95.5 40.5t40.5 95.5t-40 95t-96 40q-55 0 -95 -40t-40 -95z M389 668v145q0 168 82 266.5t217 98.5t216 -96.5t81 -268.5v-145h-596zM741 1637q0 -55 40 -95.5t95 -40.5t95 40.5t40 95.5t-40 95t-95 40t-95 -40t-40 -95z" />
<glyph unicode="&#xc5;" horiz-adv-x="1374" d="M141 25q0 -25 25 -25h199q25 0 24 25v421h596v-421q0 -25 25 -25h198q25 0 25 25v792q0 238 -131 406q-152 190 -414 190q-264 0 -414 -190q-133 -170 -133 -406v-792zM389 668v145q0 168 82 266.5t217 98.5t216 -96.5t81 -268.5v-145h-596zM498 1714q0 -39 15 -74 t40.5 -60.5t60.5 -41t74 -15.5t74 15.5t60.5 41t40.5 60.5t15 74t-15 73.5t-40.5 60t-60.5 41t-74 15.5t-74 -15.5t-60.5 -41t-40.5 -60t-15 -73.5zM608 1714q0 33 23.5 56.5t56.5 23.5t56.5 -23.5t23.5 -56.5t-23.5 -56.5t-56.5 -23.5t-56.5 23.5t-23.5 56.5z" />
<glyph unicode="&#xc6;" horiz-adv-x="2064" d="M141 25q0 -25 25 -25h199q25 0 24 25v421h596v-421q0 -25 25 -25h991q24 0 24 25v172q0 25 -24 24h-768v369h659q25 0 25 26v170q0 25 -25 25h-659v363h768q25 0 24 24v172q0 25 -24 25h-991q-25 0 -25 -25v-41q-125 84 -297 84q-264 0 -414 -190q-133 -170 -133 -406 v-792zM389 668v145q0 168 82 266.5t217 98.5t216 -96.5t81 -268.5v-145h-596z" />
<glyph unicode="&#xc7;" horiz-adv-x="1411" d="M80 698q0 -270 170 -469q168 -197 428 -239l-16 -133q10 2 18 2h20q80 0 80 -43q0 -51 -86 -47q-86 2 -86 -21v-80q0 -18 21 -20q39 -6 71 -4q231 16 232 176q0 53 -35 93t-100 44l-2 23h6q256 0 438 147q20 15 8 35l-106 153q-12 23 -33 9q-49 -29 -76.5 -45.5 t-34.5 -20.5q-84 -39 -196 -39q-190 0 -330 139q-135 141 -135 340q0 195 137 334q137 143 328 144q141 0 305 -109q20 -14 35 6l104 160q14 20 -6 35q-217 145 -438 145q-295 0 -508 -211q-213 -213 -213 -504z" />
<glyph unicode="&#xc8;" horiz-adv-x="1241" d="M162 25q0 -25 24 -25h992q24 0 24 25v172q0 25 -24 24h-768v369h659q25 0 25 26v170q0 25 -25 25h-659v363h768q25 0 24 24v172q0 25 -24 25h-992q-25 0 -24 -25v-1345zM504 1821l207 -264q8 -14 28 -14h101q28 -1 16 24l-98 252q-12 25 -29 25h-211q-33 0 -14 -23z" />
<glyph unicode="&#xc9;" horiz-adv-x="1241" d="M162 25q0 -25 24 -25h992q24 0 24 25v172q0 25 -24 24h-768v369h659q25 0 25 26v170q0 25 -25 25h-659v363h768q25 0 24 24v172q0 25 -24 25h-992q-25 0 -24 -25v-1345zM547 1564q-10 -25 18 -24h98q20 0 29 14l207 264q8 8 2 14q-2 8 -17 9h-211q-18 0 -26 -25z" />
<glyph unicode="&#xca;" horiz-adv-x="1241" d="M162 25q0 -25 24 -25h992q24 0 24 25v172q0 25 -24 24h-768v369h659q25 0 25 26v170q0 25 -25 25h-659v363h768q25 0 24 24v172q0 25 -24 25h-992q-25 0 -24 -25v-1345zM372 1556q-14 -27 13 -27h98q4 0 27 19l149 135l148 -135q20 -18 26 -19h98q27 0 13 27l-146 264 q-12 20 -28 21h-224q-16 0 -28 -21z" />
<glyph unicode="&#xcb;" horiz-adv-x="1241" d="M162 25q0 -25 24 -25h992q24 0 24 25v172q0 25 -24 24h-768v369h659q25 0 25 26v170q0 25 -25 25h-659v363h768q25 0 24 24v172q0 25 -24 25h-992q-25 0 -24 -25v-1345zM383 1637q0 -55 40 -95.5t95 -40.5t95.5 40.5t40.5 95.5t-40 95t-96 40q-55 0 -95 -40t-40 -95z M752 1637q0 -55 40 -95.5t95 -40.5t95 40.5t40 95.5t-40 95t-95 40t-95 -40t-40 -95z" />
<glyph unicode="&#xcc;" horiz-adv-x="569" d="M158 1819l207 -263q12 -14 28 -14h99q26 0 18 25l-100 250q-8 27 -27 26h-211q-33 0 -14 -24zM162 25q0 -25 24 -25h199q25 0 25 25v1345q0 25 -25 25h-199q-25 0 -24 -25v-1345z" />
<glyph unicode="&#xcd;" horiz-adv-x="569" d="M162 25q0 -25 24 -25h199q25 0 25 25v1345q0 25 -25 25h-199q-25 0 -24 -25v-1345zM170 1567q-8 -27 18 -27h99q20 0 28 14l207 265q18 23 -14 22h-211q-18 0 -27 -24z" />
<glyph unicode="&#xce;" horiz-adv-x="569" d="M0 1554q-16 -25 12 -24h97q8 0 28 16l148 137l147 -137q20 -16 29 -16h96q26 -1 12 24l-145 267q-8 20 -27 20h-225q-18 0 -27 -20zM162 25q0 -25 24 -25h199q25 0 25 25v1345q0 25 -25 25h-199q-25 0 -24 -25v-1345z" />
<glyph unicode="&#xcf;" horiz-adv-x="569" d="M-35 1636q0 -55 40 -95t95 -40q57 0 96.5 40t39.5 95t-39 95.5t-97 40.5q-55 0 -95 -40t-40 -96zM162 25q0 -25 24 -25h199q25 0 25 25v1345q0 25 -25 25h-199q-25 0 -24 -25v-1345zM334 1636q0 -55 40 -95t95 -40q57 0 96 40t39 95t-39 95.5t-96 40.5q-55 0 -95 -40 t-40 -96z" />
<glyph unicode="&#xd0;" />
<glyph unicode="&#xd1;" horiz-adv-x="1523" d="M162 25q0 -25 24 -25h183q25 0 24 25v954l744 -971q6 -8 18 -8h182q27 0 27 25v1345q0 25 -27 25h-182q-25 0 -25 -25v-952l-737 964q-12 12 -24 13h-183q-25 0 -24 -25v-1345zM471 1569q0 -25 20 -25h64q12 0 18 12q18 43 64 44q29 0 127 -29q92 -27 147 -27 q147 0 182 246q2 25 -20 25h-57q-12 0 -21 -15q-27 -45 -61 -45q-16 0 -129 25q-106 27 -168 26q-137 0 -166 -237z" />
<glyph unicode="&#xd2;" horiz-adv-x="1615" d="M80 696q0 -303 213 -510q213 -205 516 -204q303 0 514 204q213 207 213 510q0 301 -215 514q-211 205 -512 205q-299 0 -516 -207q-213 -207 -213 -512zM334 696q0 197 139 340q137 143 336 144q199 0 336 -144q139 -145 139 -340t-139 -338q-139 -141 -336 -141 q-199 0 -336 141q-139 143 -139 338zM656 1821l207 -264q8 -14 28 -14h101q28 -1 16 24l-98 252q-12 25 -29 25h-211q-33 0 -14 -23z" />
<glyph unicode="&#xd3;" horiz-adv-x="1615" d="M80 696q0 -303 213 -510q213 -205 516 -204q303 0 514 204q213 207 213 510q0 301 -215 514q-211 205 -512 205q-299 0 -516 -207q-213 -207 -213 -512zM334 696q0 197 139 340q137 143 336 144q199 0 336 -144q139 -145 139 -340t-139 -338q-139 -141 -336 -141 q-199 0 -336 141q-139 143 -139 338zM674 1564q-10 -25 18 -24h98q20 0 29 14l207 264q8 8 2 14q-2 8 -17 9h-211q-18 0 -26 -25z" />
<glyph unicode="&#xd4;" horiz-adv-x="1615" d="M80 696q0 -303 213 -510q213 -205 516 -204q303 0 514 204q213 207 213 510q0 301 -215 514q-211 205 -512 205q-299 0 -516 -207q-213 -207 -213 -512zM334 696q0 197 139 340q137 143 336 144q199 0 336 -144q139 -145 139 -340t-139 -338q-139 -141 -336 -141 q-199 0 -336 141q-139 143 -139 338zM518 1556q-14 -27 13 -27h98q4 0 27 19l149 135l148 -135q20 -18 26 -19h98q27 0 13 27l-146 264q-12 20 -28 21h-224q-16 0 -28 -21z" />
<glyph unicode="&#xd5;" horiz-adv-x="1615" d="M80 696q0 -303 213 -510q213 -205 516 -204q303 0 514 204q213 207 213 510q0 301 -215 514q-211 205 -512 205q-299 0 -516 -207q-213 -207 -213 -512zM334 696q0 197 139 340q137 143 336 144q199 0 336 -144q139 -145 139 -340t-139 -338q-139 -141 -336 -141 q-199 0 -336 141q-139 143 -139 338zM516 1569q0 -25 20 -25h64q12 0 18 12q18 43 64 44q29 0 127 -29q92 -27 147 -27q147 0 182 246q2 25 -20 25h-57q-12 0 -21 -15q-27 -45 -61 -45q-16 0 -129 25q-106 27 -168 26q-137 0 -166 -237z" />
<glyph unicode="&#xd6;" horiz-adv-x="1615" d="M80 696q0 -303 213 -510q213 -205 516 -204q303 0 514 204q213 207 213 510q0 301 -215 514q-211 205 -512 205q-299 0 -516 -207q-213 -207 -213 -512zM334 696q0 197 139 340q137 143 336 144q199 0 336 -144q139 -145 139 -340t-139 -338q-139 -141 -336 -141 q-199 0 -336 141q-139 143 -139 338zM479 1637q0 -55 40 -95.5t95 -40.5t95.5 40.5t40.5 95.5t-40 95t-96 40q-55 0 -95 -40t-40 -95zM848 1637q0 -55 40 -95.5t95 -40.5t95 40.5t40 95.5t-40 95t-95 40t-95 -40t-40 -95z" />
<glyph unicode="&#xd7;" />
<glyph unicode="&#xd8;" horiz-adv-x="1615" d="M80 696q0 -293 203 -497l-86 -101q-16 -20 2 -35l86 -71q18 -20 34 2l89 104q184 -117 401 -116q303 0 514 204q213 207 213 510q0 287 -193 492l95 108q12 20 -4 37l-86 72q-18 16 -35 -4l-94 -109q-184 123 -410 123q-299 0 -516 -207q-213 -207 -213 -512zM334 696 q0 197 139 340q137 143 336 144q133 0 250 -74l-615 -717q-111 131 -110 307zM567 285l613 712q104 -133 104 -301q0 -195 -139 -338q-139 -141 -336 -141q-129 0 -242 68z" />
<glyph unicode="&#xd9;" horiz-adv-x="1427" d="M141 553q0 -133 39 -238.5t113 -179.5t180.5 -113.5t241.5 -39.5t241.5 39.5t179 113.5t111.5 179.5t39 238.5v817q0 25 -24 25h-199q-25 0 -25 -25v-792q0 -360 -323 -361q-326 0 -326 361v792q0 25 -24 25h-199q-25 0 -25 -25v-817zM504 1821l207 -264q8 -14 28 -14 h101q28 -1 16 24l-98 252q-12 25 -29 25h-211q-33 0 -14 -23z" />
<glyph unicode="&#xda;" horiz-adv-x="1427" d="M141 553q0 -133 39 -238.5t113 -179.5t180.5 -113.5t241.5 -39.5t241.5 39.5t179 113.5t111.5 179.5t39 238.5v817q0 25 -24 25h-199q-25 0 -25 -25v-792q0 -360 -323 -361q-326 0 -326 361v792q0 25 -24 25h-199q-25 0 -25 -25v-817zM578 1564q-10 -25 18 -24h98 q20 0 29 14l207 264q8 8 2 14q-2 8 -17 9h-211q-18 0 -26 -25z" />
<glyph unicode="&#xdb;" horiz-adv-x="1427" d="M141 553q0 -133 39 -238.5t113 -179.5t180.5 -113.5t241.5 -39.5t241.5 39.5t179 113.5t111.5 179.5t39 238.5v817q0 25 -24 25h-199q-25 0 -25 -25v-792q0 -360 -323 -361q-326 0 -326 361v792q0 25 -24 25h-199q-25 0 -25 -25v-817zM436 1556q-14 -27 13 -27h98 q4 0 27 19l149 135l148 -135q20 -18 26 -19h98q27 0 13 27l-146 264q-12 20 -28 21h-224q-16 0 -28 -21z" />
<glyph unicode="&#xdc;" horiz-adv-x="1427" d="M141 553q0 -133 39 -238.5t113 -179.5t180.5 -113.5t241.5 -39.5t241.5 39.5t179 113.5t111.5 179.5t39 238.5v817q0 25 -24 25h-199q-25 0 -25 -25v-792q0 -360 -323 -361q-326 0 -326 361v792q0 25 -24 25h-199q-25 0 -25 -25v-817zM397 1637q0 -55 40 -95.5t95 -40.5 t95.5 40.5t40.5 95.5t-40 95t-96 40q-55 0 -95 -40t-40 -95zM766 1637q0 -55 40 -95.5t95 -40.5t95 40.5t40 95.5t-40 95t-95 40t-95 -40t-40 -95z" />
<glyph unicode="&#xdd;" />
<glyph unicode="&#xde;" />
<glyph unicode="&#xdf;" horiz-adv-x="1173" d="M162 -102q0 -25 24 -25h185q27 0 26 25v1142q0 176 176 177q72 0 120 -47.5t48 -118.5q0 -127 -82 -166q-31 -14 -102 -19q-25 -4 -25 -24v-160q0 -20 19 -20q272 0 272 -250q0 -90 -53 -156q-59 -68 -154 -68q-31 0 -106 17q-25 6 -25 -27v-162q0 -23 27 -24 q33 -4 71 -7t79 -3q180 0 290.5 119t110.5 307q0 137 -74 235t-198 125l2 4q86 27 141 117q51 82 51 188q0 160 -107.5 249t-306.5 89q-184 0 -290 -92q-119 -100 -119 -283v-1142z" />
<glyph unicode="&#xe0;" horiz-adv-x="995" d="M102 276q0 -139 101 -221q88 -74 207 -73q141 0 211 65v-24q0 -23 24 -23h186q21 0 21 23v565q0 199 -141 289q-96 61 -226 61q-172 0 -335 -109q-20 -14 -9 -32l86 -121q12 -18 31 -6q106 76 227 75q61 0 100.5 -41.5t35.5 -105.5q-260 -35 -342 -74q-176 -86 -177 -248 zM312 1372l207 -264q8 -14 28 -14h101q28 -1 16 24l-98 252q-12 25 -29 25h-211q-33 0 -14 -23zM336 264q-6 63 59 92q16 10 44 18.5t67 16.5q37 8 115 19v-174q-66 -61 -168 -62q-106 0 -117 90z" />
<glyph unicode="&#xe1;" horiz-adv-x="995" d="M102 276q0 -139 101 -221q88 -74 207 -73q141 0 211 65v-24q0 -23 24 -23h186q21 0 21 23v565q0 199 -141 289q-96 61 -226 61q-172 0 -335 -109q-20 -14 -9 -32l86 -121q12 -18 31 -6q106 76 227 75q61 0 100.5 -41.5t35.5 -105.5q-260 -35 -342 -74q-176 -86 -177 -248 zM336 264q-6 63 59 92q16 10 44 18.5t67 16.5q37 8 115 19v-174q-66 -61 -168 -62q-106 0 -117 90zM379 1118q-10 -25 18 -24h98q20 0 29 14l207 264q8 8 2 14q-2 8 -17 9h-211q-18 0 -26 -25z" />
<glyph unicode="&#xe2;" horiz-adv-x="995" d="M102 276q0 -139 101 -221q88 -74 207 -73q141 0 211 65v-24q0 -23 24 -23h186q21 0 21 23v565q0 199 -141 289q-96 61 -226 61q-172 0 -335 -109q-20 -14 -9 -32l86 -121q12 -18 31 -6q106 76 227 75q61 0 100.5 -41.5t35.5 -105.5q-260 -35 -342 -74q-176 -86 -177 -248 zM213 1110q-14 -27 13 -27h98q4 0 27 19l149 135l148 -135q20 -18 26 -19h98q27 0 13 27l-146 264q-12 20 -28 21h-224q-16 0 -28 -21zM336 264q-6 63 59 92q16 10 44 18.5t67 16.5q37 8 115 19v-174q-66 -61 -168 -62q-106 0 -117 90z" />
<glyph unicode="&#xe3;" horiz-adv-x="995" d="M102 276q0 -139 101 -221q88 -74 207 -73q141 0 211 65v-24q0 -23 24 -23h186q21 0 21 23v565q0 199 -141 289q-96 61 -226 61q-172 0 -335 -109q-20 -14 -9 -32l86 -121q12 -18 31 -6q106 76 227 75q61 0 100.5 -41.5t35.5 -105.5q-260 -35 -342 -74q-176 -86 -177 -248 zM209 1143q0 -25 20 -25h64q12 0 18 12q18 43 64 44q29 0 127 -29q92 -27 147 -27q147 0 182 246q2 25 -20 25h-57q-12 0 -21 -15q-27 -45 -61 -45q-16 0 -129 25q-106 27 -168 26q-137 0 -166 -237zM336 264q-6 63 59 92q16 10 44 18.5t67 16.5q37 8 115 19v-174 q-66 -61 -168 -62q-106 0 -117 90z" />
<glyph unicode="&#xe4;" horiz-adv-x="995" d="M102 276q0 -139 101 -221q88 -74 207 -73q141 0 211 65v-24q0 -23 24 -23h186q21 0 21 23v565q0 199 -141 289q-96 61 -226 61q-172 0 -335 -109q-20 -14 -9 -32l86 -121q12 -18 31 -6q106 76 227 75q61 0 100.5 -41.5t35.5 -105.5q-260 -35 -342 -74q-176 -86 -177 -248 zM188 1260q0 -55 40 -95.5t95 -40.5t95.5 40.5t40.5 95.5t-40 95t-96 40q-55 0 -95 -40t-40 -95zM336 264q-6 63 59 92q16 10 44 18.5t67 16.5q37 8 115 19v-174q-66 -61 -168 -62q-106 0 -117 90zM557 1260q0 -55 40 -95.5t95 -40.5t95 40.5t40 95.5t-40 95t-95 40t-95 -40 t-40 -95z" />
<glyph unicode="&#xe5;" horiz-adv-x="995" d="M102 276q0 -139 101 -221q88 -74 207 -73q141 0 211 65v-24q0 -23 24 -23h186q21 0 21 23v565q0 199 -141 289q-96 61 -226 61q-172 0 -335 -109q-20 -14 -9 -32l86 -121q12 -18 31 -6q106 76 227 75q61 0 100.5 -41.5t35.5 -105.5q-260 -35 -342 -74q-176 -86 -177 -248 zM306 1264q0 -39 15 -74t40.5 -60.5t60.5 -41t74 -15.5t74 15.5t60.5 41t40.5 60.5t15 74t-15 73.5t-40.5 60t-60.5 41t-74 15.5t-74 -15.5t-60.5 -41t-40.5 -60t-15 -73.5zM336 264q-6 63 59 92q16 10 44 18.5t67 16.5q37 8 115 19v-174q-66 -61 -168 -62q-106 0 -117 90z M416 1264q0 33 23.5 56.5t56.5 23.5t56.5 -23.5t23.5 -56.5t-23.5 -56.5t-56.5 -23.5t-56.5 23.5t-23.5 56.5z" />
<glyph unicode="&#xe6;" horiz-adv-x="1560" d="M102 276q0 -139 101 -221q88 -74 207 -73q182 0 344 124q131 -125 329 -124q174 0 306 88q27 16 6 39l-99 131q-12 16 -34 0q-66 -47 -162 -52q-88 0 -157 49.5t-89 135.5h598q23 -1 25 26q2 29 3 52.5t1 46.5q0 188 -113 309q-119 131 -313 131q-178 0 -293 -100 q-100 100 -277 100q-172 0 -335 -109q-20 -14 -9 -32l86 -121q12 -18 31 -6q106 76 227 75q61 0 100.5 -41.5t35.5 -105.5q-260 -35 -342 -74q-176 -86 -177 -248zM336 264q-6 63 59 92q51 29 211 52q8 -99 41 -152q-82 -82 -194 -82q-106 0 -117 90zM852 578 q10 66 67.5 114.5t129.5 48.5q76 0 130 -42.5t60 -120.5h-387z" />
<glyph unicode="&#xe7;" horiz-adv-x="907" d="M80 461q0 -207 143 -344q96 -90 230 -123l-17 -137q10 2 19 2h20q80 0 80 -43q0 -51 -86 -47q-86 2 -86 -21v-80q0 -18 20 -20q39 -6 72 -4q231 16 232 176q0 53 -35 93t-101 44l-2 25h6q172 0 287 79q20 14 4 33l-88 135q-16 18 -33 4q-72 -43 -165 -43q-109 0 -185 80 q-76 78 -76 191q0 98 74 182q78 84 187 84q92 0 163 -59q14 -16 31 6l96 139q12 18 -6 33q-139 92 -289 92q-201 0 -350 -139q-145 -139 -145 -338z" />
<glyph unicode="&#xe8;" horiz-adv-x="1038" d="M80 471q0 -213 135 -350q135 -139 346 -139q174 0 305 88q27 16 6 39l-98 131q-12 16 -35 0q-66 -47 -161 -52q-88 0 -157 49.5t-89 135.5h598q22 -1 24 26q2 29 3 52.5t1 46.5q0 188 -112 309q-119 131 -314 131q-201 0 -319 -125q-133 -139 -133 -342zM330 578 q10 66 67.5 114.5t128.5 48.5q76 0 130.5 -42.5t60.5 -120.5h-387zM334 1372l207 -264q8 -14 28 -14h101q28 -1 16 24l-98 252q-12 25 -29 25h-211q-33 0 -14 -23z" />
<glyph unicode="&#xe9;" horiz-adv-x="1038" d="M80 471q0 -213 135 -350q135 -139 346 -139q174 0 305 88q27 16 6 39l-98 131q-12 16 -35 0q-66 -47 -161 -52q-88 0 -157 49.5t-89 135.5h598q22 -1 24 26q2 29 3 52.5t1 46.5q0 188 -112 309q-119 131 -314 131q-201 0 -319 -125q-133 -139 -133 -342zM330 578 q10 66 67.5 114.5t128.5 48.5q76 0 130.5 -42.5t60.5 -120.5h-387zM418 1118q-10 -25 18 -24h98q20 0 29 14l207 264q8 8 2 14q-2 8 -17 9h-211q-18 0 -26 -25z" />
<glyph unicode="&#xea;" horiz-adv-x="1038" d="M80 471q0 -213 135 -350q135 -139 346 -139q174 0 305 88q27 16 6 39l-98 131q-12 16 -35 0q-66 -47 -161 -52q-88 0 -157 49.5t-89 135.5h598q22 -1 24 26q2 29 3 52.5t1 46.5q0 188 -112 309q-119 131 -314 131q-201 0 -319 -125q-133 -139 -133 -342zM252 1110 q-14 -27 13 -27h98q4 0 27 19l149 135l148 -135q20 -18 26 -19h98q27 0 13 27l-146 264q-12 20 -28 21h-224q-16 0 -28 -21zM330 578q10 66 67.5 114.5t128.5 48.5q76 0 130.5 -42.5t60.5 -120.5h-387z" />
<glyph unicode="&#xeb;" horiz-adv-x="1038" d="M80 471q0 -213 135 -350q135 -139 346 -139q174 0 305 88q27 16 6 39l-98 131q-12 16 -35 0q-66 -47 -161 -52q-88 0 -157 49.5t-89 135.5h598q22 -1 24 26q2 29 3 52.5t1 46.5q0 188 -112 309q-119 131 -314 131q-201 0 -319 -125q-133 -139 -133 -342zM219 1260 q0 -55 40 -95.5t95 -40.5t95.5 40.5t40.5 95.5t-40 95t-96 40q-55 0 -95 -40t-40 -95zM330 578q10 66 67.5 114.5t128.5 48.5q76 0 130.5 -42.5t60.5 -120.5h-387zM588 1260q0 -55 40 -95.5t95 -40.5t95 40.5t40 95.5t-40 95t-95 40t-95 -40t-40 -95z" />
<glyph unicode="&#xec;" horiz-adv-x="561" d="M103 1372l207 -264q8 -14 28 -14h101q28 -1 16 24l-98 252q-12 25 -29 25h-211q-33 0 -14 -23zM164 23q0 -23 22 -23h187q22 0 22 23v874q0 23 -22 23h-187q-23 0 -22 -23v-874z" />
<glyph unicode="&#xed;" horiz-adv-x="561" d="M127 1118q-12 -25 16 -24h101q20 0 28 14l207 264q18 23 -14 23h-211q-16 0 -29 -25zM164 23q0 -23 22 -23h187q22 0 22 23v874q0 23 -22 23h-187q-23 0 -22 -23v-874z" />
<glyph unicode="&#xee;" horiz-adv-x="561" d="M-2 1110q-14 -27 13 -27h98q4 0 27 19l149 135l148 -135q20 -18 26 -19h98q27 0 13 27l-146 264q-12 20 -28 21h-224q-16 0 -28 -21zM164 23q0 -23 22 -23h187q22 0 22 23v874q0 23 -22 23h-187q-23 0 -22 -23v-874z" />
<glyph unicode="&#xef;" horiz-adv-x="561" d="M-35 1260q0 -55 40 -95.5t95 -40.5t95.5 40.5t40.5 95.5t-40 95t-96 40q-55 0 -95 -40t-40 -95zM164 23q0 -23 22 -23h187q22 0 22 23v874q0 23 -22 23h-187q-23 0 -22 -23v-874zM334 1260q0 -55 40 -95.5t95 -40.5t95 40.5t40 95.5t-40 95t-95 40t-95 -40t-40 -95z" />
<glyph unicode="&#xf0;" />
<glyph unicode="&#xf1;" horiz-adv-x="1120" d="M162 23q0 -23 22 -23h187q23 0 22 23v426q0 80 13 145q8 45 47 84q45 51 118 51q102 0 144 -65q31 -53 30 -164v-477q0 -23 23 -23h184q25 0 25 23v532q0 172 -92 274q-98 109 -277 109q-139 0 -215 -64v23q0 23 -22 23h-187q-23 0 -22 -23v-874zM262 1143q0 -25 20 -25 h64q12 0 18 12q18 43 64 44q29 0 127 -29q92 -27 147 -27q147 0 182 246q2 25 -20 25h-57q-12 0 -21 -15q-27 -45 -61 -45q-16 0 -129 25q-106 27 -168 26q-137 0 -166 -237z" />
<glyph unicode="&#xf2;" horiz-adv-x="1138" d="M80 459q0 -203 143.5 -340t345.5 -137q201 0 344 137q146 139 146 340t-145.5 340t-344.5 139q-201 0 -346 -139q-143 -137 -143 -340zM311 459q0 115 76 192q76 82 182 82t183 -82q75 -77 75 -192t-75 -193q-78 -80 -183 -80q-106 0 -182 80q-76 78 -76 193zM443 1372 l207 -264q8 -14 28 -14h101q28 -1 16 24l-98 252q-12 25 -29 25h-211q-33 0 -14 -23z" />
<glyph unicode="&#xf3;" horiz-adv-x="1138" d="M80 459q0 -203 143.5 -340t345.5 -137q201 0 344 137q146 139 146 340t-145.5 340t-344.5 139q-201 0 -346 -139q-143 -137 -143 -340zM311 459q0 115 76 192q76 82 182 82t183 -82q75 -77 75 -192t-75 -193q-78 -80 -183 -80q-106 0 -182 80q-76 78 -76 193zM461 1118 q-10 -25 18 -24h98q20 0 29 14l207 264q8 8 2 14q-2 8 -17 9h-211q-18 0 -26 -25z" />
<glyph unicode="&#xf4;" horiz-adv-x="1138" d="M80 459q0 -203 143.5 -340t345.5 -137q201 0 344 137q146 139 146 340t-145.5 340t-344.5 139q-201 0 -346 -139q-143 -137 -143 -340zM288 1110q-14 -27 13 -27h98q4 0 27 19l149 135l148 -135q20 -18 26 -19h98q27 0 13 27l-146 264q-12 20 -28 21h-224q-16 0 -28 -21z M311 459q0 115 76 192q76 82 182 82t183 -82q75 -77 75 -192t-75 -193q-78 -80 -183 -80q-106 0 -182 80q-76 78 -76 193z" />
<glyph unicode="&#xf5;" horiz-adv-x="1138" d="M80 459q0 -203 143.5 -340t345.5 -137q201 0 344 137q146 139 146 340t-145.5 340t-344.5 139q-201 0 -346 -139q-143 -137 -143 -340zM285 1143q0 -25 20 -25h64q12 0 18 12q18 43 64 44q29 0 127 -29q92 -27 147 -27q147 0 182 246q2 25 -20 25h-57q-12 0 -21 -15 q-27 -45 -61 -45q-16 0 -129 25q-106 27 -168 26q-137 0 -166 -237zM311 459q0 115 76 192q76 82 182 82t183 -82q75 -77 75 -192t-75 -193q-78 -80 -183 -80q-106 0 -182 80q-76 78 -76 193z" />
<glyph unicode="&#xf6;" horiz-adv-x="1138" d="M80 459q0 -203 143.5 -340t345.5 -137q201 0 344 137q146 139 146 340t-145.5 340t-344.5 139q-201 0 -346 -139q-143 -137 -143 -340zM243 1260q0 -55 40 -95.5t95 -40.5t95.5 40.5t40.5 95.5t-40 95t-96 40q-55 0 -95 -40t-40 -95zM311 459q0 115 76 192q76 82 182 82 t183 -82q75 -77 75 -192t-75 -193q-78 -80 -183 -80q-106 0 -182 80q-76 78 -76 193zM612 1260q0 -55 40 -95.5t95 -40.5t95 40.5t40 95.5t-40 95t-95 40t-95 -40t-40 -95z" />
<glyph unicode="&#xf7;" />
<glyph unicode="&#xf8;" horiz-adv-x="1138" d="M80 459q0 -199 139 -334l-78 -92q-16 -20 2 -35l45 -39q20 -16 35 2l82 94q119 -74 264 -73q201 0 344 137q146 139 146 340q0 190 -129 325l80 95q16 20 -2 34l-45 39q-23 18 -37 -2l-80 -94q-125 82 -277 82q-201 0 -346 -139q-143 -137 -143 -340zM311 459 q0 115 76 192q76 82 182 82q70 0 136 -41l-340 -397q-53 76 -54 164zM446 219l336 393q45 -65 45 -153q0 -115 -75 -193q-78 -80 -183 -80q-66 0 -123 33z" />
<glyph unicode="&#xf9;" horiz-adv-x="1069" d="M135 371q0 -152 62 -246q92 -143 338 -143q244 0 337 143q62 94 62 246v526q0 23 -23 23h-186q-23 0 -23 -23v-483q0 -100 -10 -138q-16 -47 -67 -73q-41 -20 -90 -21q-49 0 -91 21q-53 27 -67 73q-10 37 -10 138v483q0 23 -23 23h-186q-23 0 -23 -23v-526zM359 1372 l207 -264q8 -14 28 -14h101q28 -1 16 24l-98 252q-12 25 -29 25h-211q-33 0 -14 -23z" />
<glyph unicode="&#xfa;" horiz-adv-x="1069" d="M135 371q0 -152 62 -246q92 -143 338 -143q244 0 337 143q62 94 62 246v526q0 23 -23 23h-186q-23 0 -23 -23v-483q0 -100 -10 -138q-16 -47 -67 -73q-41 -20 -90 -21q-49 0 -91 21q-53 27 -67 73q-10 37 -10 138v483q0 23 -23 23h-186q-23 0 -23 -23v-526zM416 1118 q-10 -25 18 -24h98q20 0 29 14l207 264q8 8 2 14q-2 8 -17 9h-211q-18 0 -26 -25z" />
<glyph unicode="&#xfb;" horiz-adv-x="1069" d="M135 371q0 -152 62 -246q92 -143 338 -143q244 0 337 143q62 94 62 246v526q0 23 -23 23h-186q-23 0 -23 -23v-483q0 -100 -10 -138q-16 -47 -67 -73q-41 -20 -90 -21q-49 0 -91 21q-53 27 -67 73q-10 37 -10 138v483q0 23 -23 23h-186q-23 0 -23 -23v-526zM247 1110 q-14 -27 13 -27h98q4 0 27 19l149 135l148 -135q20 -18 26 -19h98q27 0 13 27l-146 264q-12 20 -28 21h-224q-16 0 -28 -21z" />
<glyph unicode="&#xfc;" horiz-adv-x="1069" d="M135 371q0 -152 62 -246q92 -143 338 -143q244 0 337 143q62 94 62 246v526q0 23 -23 23h-186q-23 0 -23 -23v-483q0 -100 -10 -138q-16 -47 -67 -73q-41 -20 -90 -21q-49 0 -91 21q-53 27 -67 73q-10 37 -10 138v483q0 23 -23 23h-186q-23 0 -23 -23v-526zM217 1260 q0 -55 40 -95.5t95 -40.5t95.5 40.5t40.5 95.5t-40 95t-96 40q-55 0 -95 -40t-40 -95zM586 1260q0 -55 40 -95.5t95 -40.5t95 40.5t40 95.5t-40 95t-95 40t-95 -40t-40 -95z" />
<glyph unicode="&#xfd;" />
<glyph unicode="&#xfe;" />
<glyph unicode="&#xff;" horiz-adv-x="888" d="M2 887q121 -299 210 -521.5t148 -375.5q-29 -102 -88 -168q-74 -76 -163 -64q-25 0 -25 -24v-183q0 -27 25 -22q184 12 299.5 114.5t181.5 309.5l299 934q8 33 -15 33h-215q-23 0 -26 -17q-39 -143 -64.5 -238.5t-38.5 -146.5l-53 -217l-209 602q-6 16 -32 17h-220 q-29 0 -14 -33zM121 1260q0 -55 40 -95.5t95 -40.5t95.5 40.5t40.5 95.5t-40 95t-96 40q-55 0 -95 -40t-40 -95zM490 1260q0 -55 40 -95.5t95 -40.5t95 40.5t40 95.5t-40 95t-95 40t-95 -40t-40 -95z" />
<glyph unicode="&#x152;" horiz-adv-x="2363" d="M80 696q0 -303 213 -510q213 -205 516 -204q268 0 475 170v-127q0 -25 25 -25h991q24 0 24 25v172q0 25 -24 24h-768v369h659q25 0 25 26v170q0 25 -25 25h-659v363h768q25 0 24 24v172q0 25 -24 25h-991q-25 0 -25 -25v-127q-207 172 -475 172q-299 0 -516 -207 q-213 -207 -213 -512zM334 696q0 197 139 340q137 143 336 144q199 0 336 -144q139 -145 139 -340t-139 -338q-139 -141 -336 -141q-199 0 -336 141q-139 143 -139 338z" />
<glyph unicode="&#x153;" horiz-adv-x="1785" d="M80 459q0 -203 143.5 -340t345.5 -137q225 0 371 163q139 -164 369 -163q174 0 305 88q27 16 6 39l-98 131q-12 16 -35 0q-63 -47 -162 -52q-88 0 -156.5 49.5t-89.5 135.5h598q23 -1 25 26q2 29 3 52.5t1 46.5q0 188 -113 309q-119 131 -313 131q-242 0 -346 -158 q-147 158 -365 158q-201 0 -346 -139q-143 -137 -143 -340zM311 459q0 115 76 192q76 82 182 82t183 -82q75 -77 75 -192t-75 -193q-78 -80 -183 -80q-106 0 -182 80q-76 78 -76 193zM1079 578q10 66 67.5 114.5t127.5 48.5q76 0 130 -42.5t60 -120.5h-385z" />
<glyph unicode="&#x178;" horiz-adv-x="1259" d="M-18 1382q0 -12 6 -20l518 -707v-630q0 -25 24 -25h199q25 0 25 25v628l520 709q6 8 6 20q-4 12 -16 13h-256q-29 0 -43 -25l-336 -491l-332 491q-16 25 -43 25h-256q-14 0 -16 -13zM313 1637q0 -55 40 -95.5t95 -40.5t95.5 40.5t40.5 95.5t-40 95t-96 40q-55 0 -95 -40 t-40 -95zM682 1637q0 -55 40 -95.5t95 -40.5t95 40.5t40 95.5t-40 95t-95 40t-95 -40t-40 -95z" />
<glyph unicode="&#x2c6;" horiz-adv-x="681" d="M57 1110q-14 -27 13 -27h98q4 0 27 19l149 135l148 -135q20 -18 26 -19h98q27 0 13 27l-146 264q-12 20 -28 21h-224q-16 0 -28 -21z" />
<glyph unicode="&#x2dc;" horiz-adv-x="681" d="M33 1143q0 -25 20 -25h64q12 0 18 12q18 43 64 44q29 0 127 -29q92 -27 147 -27q147 0 182 246q2 25 -20 25h-57q-12 0 -21 -15q-27 -45 -61 -45q-16 0 -129 25q-106 27 -168 26q-137 0 -166 -237z" />
<glyph unicode="&#x2000;" horiz-adv-x="952" />
<glyph unicode="&#x2001;" horiz-adv-x="1904" />
<glyph unicode="&#x2002;" horiz-adv-x="952" />
<glyph unicode="&#x2003;" horiz-adv-x="1904" />
<glyph unicode="&#x2004;" horiz-adv-x="634" />
<glyph unicode="&#x2005;" horiz-adv-x="476" />
<glyph unicode="&#x2006;" horiz-adv-x="317" />
<glyph unicode="&#x2007;" horiz-adv-x="317" />
<glyph unicode="&#x2008;" horiz-adv-x="238" />
<glyph unicode="&#x2009;" horiz-adv-x="380" />
<glyph unicode="&#x200a;" horiz-adv-x="105" />
<glyph unicode="&#x2010;" horiz-adv-x="845" d="M174 350q0 -25 25 -24h448q25 -1 25 24v172q0 25 -25 25h-448q-25 0 -25 -25v-172z" />
<glyph unicode="&#x2011;" horiz-adv-x="845" d="M174 350q0 -25 25 -24h448q25 -1 25 24v172q0 25 -25 25h-448q-25 0 -25 -25v-172z" />
<glyph unicode="&#x2012;" horiz-adv-x="845" d="M174 350q0 -25 25 -24h448q25 -1 25 24v172q0 25 -25 25h-448q-25 0 -25 -25v-172z" />
<glyph unicode="&#x2013;" horiz-adv-x="1032" d="M-18 461q0 -27 24 -27h1020q25 0 25 27v117q0 25 -25 24h-1020q-25 0 -24 -24v-117z" />
<glyph unicode="&#x2014;" horiz-adv-x="2058" d="M-18 461q0 -27 24 -27h2046q25 0 25 27v117q0 25 -25 24h-2046q-25 0 -24 -24v-117z" />
<glyph unicode="&#x2018;" horiz-adv-x="636" d="M100 1069q0 -98 47.5 -155.5t128.5 -57.5q70 0 113 39t43 111q0 129 -137 143q-8 125 104 205q20 14 9 30l-19 25q-4 4 -24 4q-119 -37 -193 -137q-72 -100 -72 -207z" />
<glyph unicode="&#x2019;" horiz-adv-x="636" d="M205 1264q0 -129 137 -144q8 -125 -104 -205q-20 -14 -9 -30l19 -25q4 -4 24 -4q117 37 193 139q72 96 72 205q0 98 -47.5 155.5t-129.5 57.5q-70 0 -112.5 -39t-42.5 -110z" />
<glyph unicode="&#x201a;" horiz-adv-x="636" d="M205 158q0 -129 137 -144q8 -125 -104 -204q-20 -14 -9 -31l19 -25q4 -4 24 -4q117 37 193 139q72 96 72 205q0 98 -47.5 155.5t-129.5 57.5q-70 0 -112.5 -39t-42.5 -110z" />
<glyph unicode="&#x201c;" horiz-adv-x="1120" d="M100 1069q0 -98 47.5 -155.5t128.5 -57.5q70 0 113 39t43 111q0 129 -137 143q-8 125 104 205q20 14 9 30l-19 25q-4 4 -24 4q-119 -37 -193 -137q-72 -100 -72 -207zM584 1069q0 -98 47 -155.5t129 -57.5q70 0 112.5 39t42.5 111q0 129 -137 143q-8 125 105 205 q20 14 8 30l-19 25q-4 4 -24 4q-119 -37 -193 -137q-72 -100 -71 -207z" />
<glyph unicode="&#x201d;" horiz-adv-x="1120" d="M205 1264q0 -129 137 -144q8 -125 -104 -205q-20 -14 -9 -30l19 -25q4 -4 24 -4q117 37 193 139q72 96 72 205q0 98 -47.5 155.5t-129.5 57.5q-70 0 -112.5 -39t-42.5 -110zM688 1264q0 -129 137 -144q8 -125 -104 -205q-20 -14 -8 -30l18 -25q4 -4 25 -4q117 37 192 139 q72 96 72 205q0 98 -47 155.5t-129 57.5q-70 0 -113 -39t-43 -110z" />
<glyph unicode="&#x201e;" horiz-adv-x="1120" d="M205 158q0 -129 137 -144q8 -125 -104 -204q-20 -14 -9 -31l19 -25q4 -4 24 -4q117 37 193 139q72 96 72 205q0 98 -47.5 155.5t-129.5 57.5q-70 0 -112.5 -39t-42.5 -110zM688 158q0 -129 137 -144q8 -125 -104 -204q-20 -14 -8 -31l18 -25q4 -4 25 -4q117 37 192 139 q72 96 72 205q0 98 -47 155.5t-129 57.5q-70 0 -113 -39t-43 -110z" />
<glyph unicode="&#x2022;" horiz-adv-x="724" d="M109 698q0 -104 73 -180q76 -74 180 -74t179 74q75 76 75 180t-75 179q-74 76 -179 75q-104 0 -180 -75q-74 -74 -73 -179z" />
<glyph unicode="&#x2026;" horiz-adv-x="1943" d="M100 133q0 -63 44 -107t108 -44q61 0 105 44t44 107q0 61 -44 105.5t-105 44.5q-63 0 -107.5 -44t-44.5 -106zM821 133q0 -63 44 -107t106 -44q63 0 107 44t44 107q0 61 -44 105.5t-107 44.5q-61 0 -105.5 -44t-44.5 -106zM1540 133q0 -63 44 -107t108 -44q63 0 107 44 t44 107q0 61 -44 105.5t-107 44.5t-107.5 -44t-44.5 -106z" />
<glyph unicode="&#x202f;" horiz-adv-x="380" />
<glyph unicode="&#x2039;" horiz-adv-x="647" d="M59 461q0 -10 9 -21l272 -413q18 -27 41 -27h199q24 0 10 25l-268 436l268 436q14 25 -10 25h-199q-23 0 -41 -27l-272 -414q-8 -10 -9 -20z" />
<glyph unicode="&#x203a;" horiz-adv-x="647" d="M57 25q-16 -25 9 -25h198q25 0 43 27l273 413q8 10 8 21q0 10 -8 20l-273 414q-18 27 -43 27h-198q-25 0 -9 -25l269 -436z" />
<glyph unicode="&#x205f;" horiz-adv-x="476" />
<glyph unicode="&#x20ac;" horiz-adv-x="1300" d="M43 477q0 -25 25 -24h122q78 -213 261 -344q186 -129 419 -129q254 0 437 147q22 17 8 35l-105 153q-14 20 -34 9q-47 -29 -75 -45.5t-36 -20.5q-84 -39 -195 -39q-129 0 -233.5 63.5t-165.5 170.5h393q12 0 25 24l80 148q14 25 -13 24h-548q-2 16 -3.5 28.5t-1.5 20.5 q0 10 3 17v16h612q10 0 24 27l80 145q14 25 -14 25h-643q63 113 169.5 180.5t235.5 67.5q147 0 306 -109q18 -12 34 6l105 160q10 23 -8 35q-217 145 -437 145q-233 0 -419 -135q-188 -135 -263 -350h-120q-25 0 -25 -25v-145q0 -27 25 -27h82v-82h-82q-25 0 -25 -24v-148z " />
<glyph unicode="&#x2122;" horiz-adv-x="1615" d="M90 1343q0 -31 33 -30h168v-555q0 -33 33 -33h98q33 0 33 33v555h168q32 -1 32 30v87q0 33 -32 32h-500q-33 0 -33 -32v-87zM698 758q0 -33 33 -33h94q33 0 33 33v372l131 -217q18 -23 33 -22h74q14 0 32 22l132 217v-372q0 -33 32 -33h94q33 0 33 33v672q0 33 -33 32 h-94q-20 0 -28 -18l-205 -340l-205 342q-10 16 -29 16h-94q-33 0 -33 -32v-672z" />
<glyph unicode="&#x25fc;" horiz-adv-x="921" d="M0 0v922h922v-922h-922z" />
</font>
</defs>
</svg>
